<?xml version="1.0" encoding="utf-8"?>
<!-- Generator: Adobe Illustrator 19.2.1, SVG Export Plug-In . SVG Version: 6.00 Build 0)  -->
<svg version="1.1" id="Calque_1" xmlns="http://www.w3.org/2000/svg" xmlns:xlink="http://www.w3.org/1999/xlink" x="0px" y="0px"
	 viewBox="0 0 595.3 841.9" style="enable-background:new 0 0 595.3 841.9;" xml:space="preserve">
<style type="text/css">
	.st0{fill:#C7C6C7;}
	.st1{fill:#818283;}
	.st2{fill:#EAEAEA;}
	.st3{fill:#8C8C8C;}
	.st4{fill:#4A4A4A;}
	.st5{fill:#91C2E9;}
	.st6{fill:#D5ECF3;}
	.st7{fill:none;}
	.st8{fill:#FFFFFF;}
</style>
<path class="st0" d="M18.9,310c22.7-0.1,82.3,2.2,92,2.2s72.9,3.2,85.5,3.2c12.6,0,47.2-1.1,53.9-5.4c6.7-4.3,11.2,5.4,11.2,5.4v5.5
	c0,0-0.1,2.3-11.2,4.5c-11.1,2.3-27.7,6.8-51.6,4.9s-81.6-3.6-90.7-3.6s-81.3-2.6-87.4-2.6S18.9,310,18.9,310z"/>
<path class="st1" d="M261.2,332.9c-6.3-12.1-11.7-23.9-10.8-26.1c0.9-2.2,5-11.2,7.3-12.1c2.4-0.9,27.6-7.7,27.6-7.7l3.3,2.4
	l4.7,35.7l-8.4,2.6c0,0-15.5,5.2-19.6,5.2S261.2,332.9,261.2,332.9z"/>
<path class="st2" d="M282.6,298c2.6-8.9,2.4-13.6,5.4-15.1c3-1.5,18.6-6.9,20.4-11.2c1.8-4.3,3.5,3.2,3.5,3.2l-5.6,16l-11.7,5.6
	l-9.5,1.5H282.6z"/>
<polygon class="st0" points="243.1,446.4 256,435.1 260.2,446.4 246.9,453.2 243.1,451.7 "/>
<polygon class="st0" points="280.8,448.5 295.2,454.5 297.9,447.6 280.8,435.1 "/>
<path class="st0" d="M252.3,445.3c1.1-8,0.5-18.4,8.5-19.7c8-1.3,18.6-2,20,1c1.5,3,4.4,16.5,3.9,19.8s-27.3,1.7-27.3,1.7
	L252.3,445.3z"/>
<path class="st3" d="M209.2,502.6c4.2-1.3,10.2-2.6,15.1,1.8c4.9,4.4-14.4,10.2-14.4,10.2l1.5,15.6l3.1,7.2l12.5,3.9h7.1
	c0,0,0.9,4.9-0.8,7.5c-1.7,2.5-6.4,6-11.3,6c-4.8,0-14.9-4.3-14.9-4.3l-11.5-13.2l-1.6-10.2v-10.8l4.6-8L209.2,502.6z"/>
<path class="st0" d="M175.3,534.6c0.7,13.5,14.8,25.4,20.2,25.9s25.1-4.9,26.6-5.7c1.5-0.7-20.3-4.4-23.4-23.2
	c-3.1-18.8,7.9-28.3,10.6-29.1c-10.3,3.2-23.9,7.1-26.1,9.1S174.5,520.1,175.3,534.6z"/>
<path class="st0" d="M203.9,530.3c2,7.5,7.3,17.5,16.4,19.8c9.1,2.3,30.7-8,30.7-8s-11.9-6-14.2-19.8c-2.2-13.8-1.7-18.2-1-21.2
	c-3.1,1.1-27,7.1-28.1,9.1C206.7,512.2,201,519.4,203.9,530.3z"/>
<path class="st0" d="M235.8,501.1c1.3-9,9-28.9,28.3-29.1c19.3-0.1,27.4,10.3,27.4,10.3s-11.5,9-9.4,23.5
	c2.1,14.5,8.3,22.5,15.8,23.2c-0.4,1.8-7.3,13.3-16.6,15.8c-9.4,2.5-20.6,3.8-30.3-2.7C241.3,535.6,231.9,529.1,235.8,501.1z"/>
<path class="st1" d="M351.6,615c-0.4,0.8-0.8,1.6-1.3,2.5c-3.2-0.2-6-0.5-8.4-0.9c-2.9-0.4-5.3-1-7.4-1.6c-0.6-0.2-1.2-0.4-1.7-0.5
	c-1.5-0.5-2.8-1.1-3.9-1.6c-2.9-1.5-4.1-2.9-4.6-3.6l4.5,0.2l0.4,0h0.1c0.3,0.8,1.8,1.8,5.2,2.8c0.3,0.1,0.6,0.2,0.9,0.3
	c1.1,0.3,3.4,0.8,6.5,1.2C344.7,614.3,348,614.7,351.6,615z"/>
<path class="st1" d="M329.1,561.1c-0.7,1.6-0.5,7.4-0.2,19.6c-0.1,8.4-0.1,17,0,24.7c0,1.4,0,2.8,0.1,4.1l-4.5-0.2
	c-0.2-0.3-0.3-0.4-0.3-0.4v-1.1c0-31-1.3-42.9,0-44.5c0.5-0.7,2-1.9,5-3.2C329.1,560.4,329.1,560.8,329.1,561.1z"/>
<path class="st0" d="M329.1,561.1c-0.1,5.9-0.2,12.7-0.2,19.6C328.6,568.6,328.4,562.7,329.1,561.1z"/>
<path class="st0" d="M334.6,615.1c0,0.2,0,0.3,0,0.5c-0.7-0.3-1.2-0.7-1.7-1C333.4,614.7,333.9,614.9,334.6,615.1z"/>
<path class="st0" d="M334.8,557.4c0,0.3,0,0.6,0,0.8c0,2.2-0.1,4.6-0.1,7c-0.1,11.9-0.3,25.9-0.2,38.2c0,1,0,2,0,3.1
	c0,1.2,0,2.3,0,3.4c0,0.9,0,1.7,0,2.5c-3.4-1-4.9-2-5.2-2.8h-0.1c0-1.5,0-2.9,0-4.3c0-10.1-0.2-18.2-0.4-24.5
	c-0.3-12.2-0.5-18,0.2-19.6c0-0.1,0.1-0.2,0.2-0.3c0.1-0.2,0.3-0.3,0.5-0.6c0.3-0.3,0.8-0.7,1.4-1.1
	C332.1,558.7,333.2,558,334.8,557.4z"/>
<path class="st1" d="M385.5,612.5c-3.8,2.3-11,4.8-24.3,5.2c-0.3-0.7-0.6-1.5-0.8-2.2c5,0.1,9.8-0.3,13.4-1.3
	c2.4-0.7,4.5-1.3,6.3-1.9L385.5,612.5z"/>
<path class="st0" d="M389.5,606.4c0,1.5,0,2.4,0,2.4s-0.8,1.7-4,3.7l-5.4-0.3c-1.8,0.6-4,1.2-6.3,1.9c-3.6,1.1-8.4,1.4-13.4,1.3
	c0.3,0.7,0.6,1.5,0.8,2.2c-0.8,0-1.6,0-2.4,0h-1.3c-0.3,0-0.5,0-0.8,0c-2.2,0-4.3-0.1-6.2-0.2c0.4-0.9,0.9-1.7,1.3-2.5
	c-3.6-0.3-6.9-0.7-9.7-1.2c0-1.2,0-2.4,0-3.6c0-1.7,0-3.4,0-5.2c0-1.1,0-2.2,0-3.3c0-0.9,0-1.9,0-2.8c0-0.6,0-1.2,0-1.8
	c0-1.3,0-2.7,0-4c0-2,0-4-0.1-6c0-2-0.1-4-0.1-6c0-0.7,0-1.4,0-2.1c0-2.3-0.1-4.5-0.1-6.7V572c0-0.8,0-1.5,0-2.2
	c0-0.8,0-1.6-0.1-2.4c0-0.6,0-1.2,0-1.8c0-0.4,0-0.9,0-1.3c0-0.2,0-0.5,0-0.7c0-0.6,0-1.2,0-1.7c0-0.6,0-1.1,0-1.7
	c0-0.6,0-1.1,0-1.6c0-0.5,0-1,0-1.5c3.9-0.6,8.6-0.9,14.3-1c23-0.3,33.8,3.6,34.2,7.2C389.7,566.3,389.5,597.5,389.5,606.4z"/>
<path class="st0" d="M341.9,613.9c-3-0.5-5.4-0.9-6.5-1.2c-0.3-0.1-0.6-0.2-0.9-0.3c-3.4-1-4.9-2-5.2-2.8h-0.1l-0.4,0
	c0-1.3,0-2.7-0.1-4.1c-0.1-7.7,0-16.3,0-24.7c0.1-7,0.1-13.7,0.2-19.6c0-0.4,0-0.7,0-1.1c0.2-0.1,0.4-0.2,0.6-0.2
	c0,0.2,0,0.4,0.1,0.6c0.4,2.4,2.2,4,4.9,4.9c1.6,0.5,3.5,0.8,5.7,1c0.3-2.7,0.6-5.8,0.6-9.1c0,0,0,0,0,0c0,0.5,0,1,0,1.5
	c0,0.5,0,1.1,0,1.6c0,0.5,0,1.1,0,1.7c0,0.6,0,1.1,0,1.7c0,0.2,0,0.5,0,0.7c0,0.4,0,0.9,0,1.3c0,0.6,0,1.2,0,1.8
	c0,0.8,0,1.6,0.1,2.4c0,0.7,0,1.5,0,2.2v0.2c0,2.2,0.1,4.4,0.1,6.7c0,0.7,0,1.4,0,2.1c0,2,0.1,4,0.1,6c0,2,0,4,0.1,6
	c0,1.3,0,2.7,0,4c0,0.6,0,1.2,0,1.8c0,1,0,1.9,0,2.8c0,1.1,0,2.2,0,3.3c0,1.8,0,3.5,0,5.2C341.9,611.5,341.9,612.7,341.9,613.9z"/>
<path class="st1" d="M389.5,606.4c0,1.5,0,2.4,0,2.4s-0.8,1.7-4,3.7l-5.4-0.3l-21.3-1.1l-5.1-0.3l-11.7-0.6l-7.4-0.4l-5.1-0.3h-0.1
	l-0.4,0l-4.5-0.2c-0.2-0.3-0.3-0.4-0.3-0.4v-1.1c1.6-0.8,3.1-1.6,4.7-2.3c0.1-0.1,0.3-0.1,0.4-0.2c1.7-0.7,3.4-1.4,5.2-1.9
	c2.2-0.7,4.7-1.3,7.4-1.7c3.9-0.6,8.5-0.8,14.2-0.7C373.5,601.5,386.7,604.6,389.5,606.4z"/>
<path class="st0" d="M382.3,558.5c0,0-26.6,8.5-41.9,7.7c0.5-4.3,0.8-9.6,0.4-15.7c-1.2-20.1-9.9-33.1-13.5-39.5
	c-3.4-5.9-21.6-2-46,3.1c-0.5-1.4-0.9-2.9-1.4-4.6c-5.6-19.2,11.8-27.1,11.8-27.1s42.7-14.5,65,10.5
	C378.8,517.9,382.3,558.5,382.3,558.5z"/>
<path class="st0" d="M340.9,557c0,3.4-0.3,6.4-0.6,9.1c-6-0.3-10.3-2.1-10.6-6.4c0.5-0.2,1-0.4,1.5-0.6c1-0.3,2.2-0.7,3.5-1
	C336.5,557.8,338.6,557.4,340.9,557z"/>
<path class="st1" d="M340.9,557c-2.4,0.3-4.4,0.7-6.2,1.2c-1.3,0.3-2.5,0.7-3.5,1c-0.5,0.2-1,0.4-1.5,0.6c0-0.2,0-0.3,0-0.5
	c0-16.1-6.9-29.2-9.2-33.4c-2.3-4.2-10.7,1.8-22.6,3.3c-7.7,0.9-11.8-0.1-16.7-15c24.4-5.1,42.6-9,46-3.1
	c3.7,6.4,12.3,19.4,13.5,39.5C340.9,552.8,341,555,340.9,557z"/>
<path class="st0" d="M247.8,478.3c1.6-9.6,10.3-34.8,19.6-34.6s16.8,6.7,22.3,37c5.6,30.2-23.4,0-23.4,0l-13.4,7.2L247.8,478.3z"/>
<circle class="st0" cx="232.5" cy="457" r="14.9"/>
<circle class="st0" cx="306.4" cy="456.1" r="14.9"/>
<path class="st3" d="M257.8,451.7c-3-1.4-8.7-3.7-5.4-6.3c3.3-2.6,7.9-4.3,16.1-4.1c8.2,0.2,16.6,1.2,16.4,5.2s-4.3,5.2-4.3,5.2
	H257.8z"/>
<path class="st0" d="M243.1,422.4c5.8,4.3,13.4,12.8,14.5,12.7c1.1-0.2,3.6-1.1,5.7-3.9c2.1-2.8,2.4-4.7,1.8-5.4
	c-0.6-0.7-17.7-10.3-17.7-10.3l-3.6,2.7L243.1,422.4z"/>
<circle class="st0" cx="232.5" cy="411" r="15.6"/>
<path class="st0" d="M290.2,415.1c-5.7,4.4-16,9.4-16.2,10.5s0.1,3.8,2.2,6.6s3.9,3.6,4.7,3.2c0.8-0.4,14.7-14.3,14.7-14.3l-1.7-4.2
	L290.2,415.1z"/>
<circle class="st0" cx="304.9" cy="411" r="15.6"/>
<path class="st4" d="M380,612.2c-1.8,0.6-4,1.2-6.3,1.9c-3.6,1.1-8.4,1.4-13.4,1.3c-0.8,0-1.7,0-2.5-0.1c-0.3,0-0.6,0-0.8,0
	c-1.8-0.1-3.6-0.2-5.3-0.4c-3.6-0.3-6.9-0.7-9.7-1.2c-3-0.5-5.4-0.9-6.5-1.2c-0.3-0.1-0.6-0.2-0.9-0.3c-3.4-1-4.9-2-5.2-2.8
	c-0.4-1.2,1.9-2.3,5.1-3.1c1.4-0.4,3-0.7,4.6-1c0.8-0.1,1.7-0.3,2.8-0.4c3.8-0.4,9.1-0.7,14.7-0.6c8,0.1,16.7,0.7,22.9,2.2
	C388.6,608.8,386.7,610.1,380,612.2z"/>
<path class="st2" d="M286.2,505.7c5.2,0,33.3-9.7,43.2-4.6c9.9,5.1,24.8,13.8,28.7,39.6c3.9,25.8,21.2,10.2,21.2,8
	c0-2.1-8.9-55.3-44-66.3c-35.1-11-47.6,7.2-48.3,11.6S283.2,505.7,286.2,505.7z"/>
<path class="st2" d="M366.5,582.1c0-5.9-0.3-21.1,0-22.8c0.3-1.7,21-0.4,21,4.7c0,5.1,1.1,40.4,0,40.3c-1.1-0.1-4.6-3.4-12.8-3.7
	C366.5,600.3,366.6,601.4,366.5,582.1z"/>
<path class="st2" d="M308.3,468.9c2.9,0.7,7.1-0.9,8.4-5.6c1.3-4.8-1.6-10-6.4-8S298.2,466.3,308.3,468.9z"/>
<path class="st2" d="M310.1,421.8c2.6,0.2,6.1-1.1,5.9-5.4c-0.2-4.3-5.6-10.2-7.7-5.4C306.2,415.8,304.5,421.4,310.1,421.8z"/>
<path class="st2" d="M234.1,421.8c6.6-0.3,9.7-0.5,8.9-5.6c-0.7-5.1-6.5-8.7-8.9-5.3C231.7,414.4,229.8,422,234.1,421.8z"/>
<path class="st2" d="M235.9,467.3c2.6,1.4,7.4-0.5,7.1-3.6c-0.2-3.1-2.2-7.4-5.7-5.9C233.8,459.3,230.3,464.2,235.9,467.3z"/>
<path class="st2" d="M247.4,420.7c1.5,1,12.8,8.2,12.8,9.7s-1.6,3.8-3.3,2.6c-1.6-1.1-13.1-10-11.3-11.1
	C247.4,420.7,247.4,420.7,247.4,420.7z"/>
<path class="st2" d="M276.2,429.9c-1.1,0-1.5-3.3-1.1-3.7c0.4-0.4,14.1-9.4,14.3-9.1c0.2,0.3,1.9,2,1.2,2.5
	C289.8,420.2,277,429.9,276.2,429.9z"/>
<path class="st2" d="M246.2,449.5c0.4,0.8,0.6,2.4,1.2,2.1c0.7-0.3,6.4-3.2,6.4-4.7s-1.5-1.9-2.5-1.4
	C250.4,446.2,246.2,449.5,246.2,449.5z"/>
<path class="st2" d="M291,447.8c1.5,1.1,3.4-0.4,3-1.3s-10.7-8.6-11.1-8.3c-0.4,0.2-1,5.4,0,6.1C283.8,444.8,291,447.8,291,447.8z"
	/>
<path class="st2" d="M250,474.3c-0.4,2.5,12.1-5.1,15.4-4.5s3.6-23,1.8-24.4S252.9,453.7,250,474.3z"/>
<path class="st2" d="M246.6,513.6c7.1,0,17.2-7.7,17.7-23.3s-9.4-15.1-11.7-13.3c-2.3,1.8-15.6,14.8-13.5,27.3
	C241.3,516.7,246.6,513.6,246.6,513.6z"/>
<path class="st2" d="M208.2,531.6c6.1-2.5,23.3-5.1,24.8-8.1s-1-16.3,0-18.6s-21.9,5.4-23.3,6.4s-4.4,5.1-4.1,12.2
	S204.9,532.9,208.2,531.6z"/>
<path class="st2" d="M196.4,528.1c-0.2-3.2-0.2-12.8,2.3-16.1c2.5-3.3-15.9,2.8-17.7,4.4c-1.8,1.6-6.1,10.8-4.1,19.4
	C178.8,544.3,196.4,528.1,196.4,528.1z"/>
<path class="st5" d="M357.5,720.5c-30.8,0-49.5-33.2-29.8-63.7c10.4-16.2,17.9-29.9,22.6-39.3c0.4-0.9,0.9-1.7,1.3-2.5
	c0.8-1.5,1.4-2.9,2-4.2c2-4.2,2.9-6.5,2.9-6.5c0.7,2.3,1.4,4.5,2.2,6.7c0.5,1.5,1,2.9,1.5,4.4c0.3,0.7,0.6,1.5,0.8,2.2
	c5.4,14,12.6,26.8,24.6,41.1C401.3,677.5,388.3,720.5,357.5,720.5z"/>
<path class="st6" d="M366.3,715.9c6.4-1.2,18.6-9.9,19.4-23c0.8-13.1,0.8-25.6-9.7-41.7c-10.5-16.1-18-34.6-19.4-39.1
	c1,14.4,11.9,37.4,11.9,57.5s-21.3,36.1-31.2,28.2C333.6,707,340.9,720.8,366.3,715.9z"/>
<path class="st2" d="M226.4,457.5c2.5-0.9,7.9-4.6,7.1-9.4s-4.9-5.3-7.6-3.3c-2.7,2-5.6,4.5-6.4,9.9
	C218.7,460.1,226.4,457.5,226.4,457.5z"/>
<path class="st2" d="M225.3,412.3c2.3-1.5,8.4-9.5,7.2-11.5s-2.5-3.8-6-2.2c-3.5,1.6-7.8,5.5-6.5,10.5
	C221.2,414.3,225.3,412.3,225.3,412.3z"/>
<path class="st2" d="M291.5,406.3c0.5-2.2,5.4-9.2,10.4-9.2c5,0,5,3.8,3,6.3c-2.1,2.5-7.2,9.2-11,5.9
	C290.2,405.9,291.5,406.3,291.5,406.3z"/>
<path class="st2" d="M297.9,454c3-1.7,9.2-7.5,7.8-9.2s-4.9-0.8-6.3,0c-1.4,0.8-5.3,2.8-5.4,6.9S297.9,454,297.9,454z"/>
<path class="st0" d="M282.6,298c5.7-2.5,23.5-9.3,25-19.8c1.5-10.5,2.4-30.3,6.5-32.3c4.1-1.9,41.5-13.3,46.1-13
	c4.6,0.3,4,53.2,4,53.2l18.3,43l6.7-2.2l2,1c0,0-1.1,3.7-3.5,5s-18.6,6.9-23.5,7.8c-5,0.9-15.3,4.3-20.1,3.5
	c-4.7-0.9-10.4-11.7-22.9-14.7s-28.3,0.6-30,0.6s-9.9-19.9-9.9-22.7S279.9,299.2,282.6,298z"/>
<path class="st1" d="M356.8,272.3c3.9,13.2,19.9,58.1,26.1,60.2c6.3,2.2,10.4-4.5,9.5-16.2c-0.9-11.7-7.6-38.9-16-58.7
	s-13.2-29.6-19.6-22.5C350.4,242.3,356.8,272.3,356.8,272.3z"/>
<path class="st0" d="M369.2,297.1c-0.8-3.6-1.6-6.2,1.5-7c3.1-0.9,44.3-11.9,45.1-11.9c0.9,0,4.9,1,5.5,3.8c0.6,2.8-0.8,6-3.3,6.8
	c-2.6,0.8-42.7,11.8-45.2,11.9C370.3,300.8,369.7,299.1,369.2,297.1z"/>
<path class="st0" d="M376.7,272.8c-0.8-3.4-1.5-5.4,0-5.9c1.5-0.5,43.2-11.8,44.8-11.9c1.7-0.1,4.3,0.9,4.9,3.6
	c0.6,2.7-0.8,5.5-2.5,6.2c-1.7,0.6-41,11.6-42.5,11.8C379.9,276.7,378,278.2,376.7,272.8z"/>
<path class="st4" d="M384.1,312.9c-1.2-4.2-1.9-8.4-1.2-8.7c0.8-0.3,2.7,2.5,3.1,4.4s1.2,6.3,0.5,6.6
	C386,315.5,385,315.8,384.1,312.9z"/>
<path class="st2" d="M372.6,294.9c-1.8-0.7-0.9-4.1,0.7-4.5c1.6-0.4,41.8-11,42.8-11s2.9,0.5,2.9,1.5s2.6,2.9-1.4,3.3
	C413.6,284.7,374.7,295.8,372.6,294.9z"/>
<path class="st2" d="M379.8,271.7c3-0.8,39.7-10,41.7-10.5s4.9-3.1,2.6-4.2s-5-0.9-14.6,1.8c-9.6,2.7-30.4,8.2-31.5,8.9
	S377.4,272.4,379.8,271.7z"/>
<circle class="st1" cx="422.2" cy="26.2" r="1.2"/>
<circle class="st1" cx="416.9" cy="281.9" r="1.3"/>
<path class="st2" d="M334.8,282.9c-1-5.1,19-11.7,20.1-8.4S335.8,288.3,334.8,282.9z"/>
<path class="st1" d="M20.7,313.5c-3.5,0.2,89,9.1,98.9,8.6c9.9-0.4,122.2,9.5,135.2-2.4c-1.1-2.5-2.7-6.3-2.7-6.3
	s-11.6,5.2-22.8,6.1c-11.2,0.8-136-6.5-145.1-6.1S27.6,313.1,20.7,313.5z"/>
<path class="st1" d="M327.2,262.8c1.1,11,21.8,71.5,24.4,73c2.6,1.5-24.2-5.2-31.1-30.2c-6.9-25,0.6-40.8,3.9-44.3
	C327.7,257.8,327.2,262.8,327.2,262.8z"/>
<g>
	<rect x="124.4" y="442.3" class="st7" width="157.3" height="29.3"/>
	<path class="st8" d="M134.7,454l1.3-10.7h3.1l-2.5,17.8h-3.1l-1.7-10.5l-1.6,10.5h-3.1l-2.4-17.8h3.1l1.3,10.6l1.5-10.6h2.5
		L134.7,454z"/>
	<path class="st8" d="M149.4,461.1c-0.1-0.2-0.2-0.3-0.2-0.6c-0.1-0.2-0.1-0.4-0.1-0.7c-0.2,0.2-0.4,0.4-0.6,0.6
		c-0.2,0.2-0.5,0.3-0.8,0.5c-0.3,0.1-0.6,0.2-1,0.3c-0.4,0.1-0.7,0.1-1.2,0.1c-0.7,0-1.3-0.1-1.9-0.3c-0.6-0.2-1.1-0.5-1.5-0.8
		c-0.4-0.3-0.7-0.8-1-1.3c-0.2-0.5-0.3-1-0.3-1.6c0-1.4,0.5-2.5,1.6-3.2c1-0.8,2.6-1.1,4.6-1.1h1.9v-0.8c0-0.6-0.2-1.1-0.6-1.5
		s-1-0.6-1.8-0.6c-0.7,0-1.2,0.1-1.5,0.4c-0.3,0.3-0.5,0.7-0.5,1.2h-3.4c0-0.6,0.1-1.1,0.4-1.6c0.2-0.5,0.6-0.9,1.1-1.3
		c0.5-0.4,1.1-0.7,1.7-0.9c0.7-0.2,1.5-0.3,2.4-0.3c0.8,0,1.5,0.1,2.2,0.3c0.7,0.2,1.3,0.5,1.8,0.9c0.5,0.4,0.9,0.9,1.2,1.4
		c0.3,0.6,0.4,1.3,0.4,2v5.7c0,0.7,0,1.3,0.1,1.8c0.1,0.5,0.2,0.9,0.4,1.2v0.2H149.4z M146.2,458.7c0.3,0,0.7,0,1-0.1
		s0.6-0.2,0.8-0.3c0.2-0.1,0.4-0.3,0.6-0.4c0.2-0.2,0.3-0.3,0.4-0.5V455h-1.7c-0.5,0-1,0.1-1.4,0.2c-0.4,0.1-0.7,0.2-0.9,0.4
		c-0.2,0.2-0.4,0.4-0.5,0.7c-0.1,0.3-0.2,0.5-0.2,0.8c0,0.5,0.2,0.8,0.5,1.1C145,458.5,145.5,458.7,146.2,458.7z"/>
	<path class="st8" d="M162.4,444.6v3.2h4.9v2.5h-4.9v5.7c0,0.5,0.1,0.9,0.2,1.2c0.1,0.3,0.3,0.6,0.5,0.8c0.2,0.2,0.4,0.3,0.7,0.4
		c0.3,0.1,0.6,0.1,1,0.1c0.3,0,0.5,0,0.8,0c0.3,0,0.5-0.1,0.8-0.1c0.2,0,0.5-0.1,0.7-0.1c0.2,0,0.4-0.1,0.6-0.1l0.3,2.3
		c-0.2,0.1-0.5,0.3-0.8,0.4s-0.7,0.2-1,0.2c-0.4,0.1-0.7,0.1-1.1,0.2c-0.4,0-0.8,0.1-1.1,0.1c-0.7,0-1.4-0.1-2-0.3
		c-0.6-0.2-1.1-0.5-1.5-0.9c-0.4-0.4-0.7-0.9-1-1.5c-0.2-0.6-0.3-1.4-0.3-2.2v-6h-3v-2.5h3v-3.2H162.4z"/>
	<path class="st8" d="M177.6,461.3c-1,0-1.9-0.2-2.8-0.5c-0.8-0.3-1.5-0.8-2.1-1.4c-0.6-0.6-1.1-1.2-1.4-2c-0.3-0.8-0.5-1.6-0.5-2.5
		v-0.5c0-1,0.2-1.9,0.5-2.8c0.3-0.8,0.8-1.6,1.3-2.2c0.6-0.6,1.2-1.1,2-1.4s1.6-0.5,2.6-0.5c1,0,1.8,0.2,2.5,0.5
		c0.7,0.3,1.4,0.8,1.9,1.3c0.5,0.6,0.9,1.3,1.2,2.1s0.4,1.7,0.4,2.7v1.4h-9c0.1,0.4,0.2,0.9,0.4,1.2c0.2,0.4,0.5,0.7,0.8,1
		c0.3,0.3,0.7,0.5,1.1,0.6c0.4,0.1,0.8,0.2,1.3,0.2c0.3,0,0.7,0,1-0.1c0.3-0.1,0.6-0.2,0.9-0.3c0.3-0.1,0.6-0.3,0.8-0.5
		c0.3-0.2,0.5-0.4,0.7-0.7l1.7,1.8c-0.2,0.3-0.5,0.6-0.8,0.9c-0.3,0.3-0.7,0.5-1.2,0.8c-0.5,0.2-1,0.4-1.5,0.5
		C178.8,461.2,178.2,461.3,177.6,461.3z M177.2,450.3c-0.4,0-0.7,0.1-1,0.2c-0.3,0.1-0.6,0.3-0.8,0.6c-0.2,0.3-0.4,0.6-0.6,0.9
		c-0.2,0.3-0.3,0.7-0.4,1.2h5.6v-0.3c0-0.4-0.1-0.7-0.2-1s-0.3-0.6-0.5-0.8c-0.2-0.2-0.5-0.4-0.8-0.5
		C178,450.4,177.6,450.3,177.2,450.3z"/>
	<path class="st8" d="M195.7,447.6c0.5,0,1,0,1.4,0.1c0.4,0.1,0.8,0.1,1.1,0.2l-0.5,3.4c-0.4-0.1-0.9-0.2-1.4-0.2
		c-0.5-0.1-0.9-0.1-1.3-0.1c-1,0-1.7,0.2-2.3,0.5c-0.6,0.4-1,0.9-1.3,1.6v7.9H188v-13.2h3.2l0.2,2.2c0.5-0.7,1.2-1.3,1.9-1.8
		C193.9,447.8,194.8,447.6,195.7,447.6z"/>
</g>
<g>
	<rect x="120.1" y="241.8" class="st7" width="186.3" height="29.3"/>
	<path class="st8" d="M132.6,252.7h-7.3v5h8.5v2.8h-12v-17.8h11.9v2.8h-8.5v4.5h7.3V252.7z"/>
	<path class="st8" d="M137.5,241.8h7.4v16h3.8v2.8h-11.2v-2.8h4v-13.2h-4V241.8z"/>
	<path class="st8" d="M158.2,260.8c-1,0-1.9-0.2-2.8-0.5s-1.5-0.8-2.1-1.4c-0.6-0.6-1.1-1.2-1.4-2c-0.3-0.8-0.5-1.6-0.5-2.5v-0.5
		c0-1,0.2-1.9,0.5-2.8c0.3-0.8,0.8-1.6,1.3-2.2c0.6-0.6,1.2-1.1,2-1.4c0.8-0.3,1.6-0.5,2.6-0.5c1,0,1.8,0.2,2.5,0.5
		c0.7,0.3,1.4,0.8,1.9,1.3c0.5,0.6,0.9,1.3,1.2,2.1c0.3,0.8,0.4,1.7,0.4,2.7v1.4h-9c0.1,0.4,0.2,0.9,0.4,1.2c0.2,0.4,0.5,0.7,0.8,1
		c0.3,0.3,0.7,0.5,1.1,0.6c0.4,0.1,0.8,0.2,1.3,0.2c0.3,0,0.7,0,1-0.1c0.3-0.1,0.6-0.2,0.9-0.3c0.3-0.1,0.6-0.3,0.8-0.5
		c0.3-0.2,0.5-0.4,0.7-0.7l1.7,1.8c-0.2,0.3-0.5,0.6-0.8,0.9c-0.3,0.3-0.7,0.5-1.2,0.8c-0.5,0.2-1,0.4-1.5,0.5
		S158.8,260.8,158.2,260.8z M157.8,249.8c-0.4,0-0.7,0.1-1,0.2c-0.3,0.1-0.6,0.3-0.8,0.6c-0.2,0.3-0.4,0.6-0.6,0.9
		c-0.2,0.4-0.3,0.7-0.4,1.2h5.6v-0.3c0-0.4-0.1-0.7-0.2-1s-0.3-0.6-0.5-0.8c-0.2-0.2-0.5-0.4-0.8-0.5
		C158.6,249.9,158.2,249.8,157.8,249.8z"/>
	<path class="st8" d="M172.6,258.1c0.3,0,0.7,0,1-0.1c0.3-0.1,0.6-0.2,0.8-0.4c0.2-0.2,0.4-0.4,0.5-0.6c0.1-0.3,0.2-0.5,0.2-0.8h3.2
		c0,0.7-0.1,1.3-0.4,1.9c-0.3,0.6-0.7,1.1-1.2,1.5c-0.5,0.4-1.1,0.8-1.8,1c-0.7,0.2-1.4,0.4-2.2,0.4c-1,0-1.9-0.2-2.7-0.5
		c-0.8-0.3-1.4-0.8-1.9-1.4c-0.5-0.6-0.9-1.3-1.2-2.1c-0.3-0.8-0.4-1.7-0.4-2.6v-0.4c0-0.9,0.1-1.8,0.4-2.6c0.3-0.8,0.7-1.5,1.2-2.1
		c0.5-0.6,1.2-1.1,1.9-1.4c0.8-0.3,1.7-0.5,2.7-0.5c0.8,0,1.6,0.1,2.3,0.4c0.7,0.2,1.3,0.6,1.8,1c0.5,0.4,0.9,1,1.2,1.6
		c0.3,0.6,0.4,1.3,0.4,2.1h-3.2c0-0.3,0-0.6-0.1-0.9c-0.1-0.3-0.3-0.5-0.5-0.8c-0.2-0.2-0.5-0.4-0.8-0.5c-0.3-0.1-0.6-0.2-1-0.2
		c-0.5,0-1,0.1-1.3,0.3c-0.4,0.2-0.6,0.5-0.8,0.9c-0.2,0.4-0.4,0.8-0.4,1.3c-0.1,0.5-0.1,1-0.1,1.5v0.4c0,0.5,0,1,0.1,1.5
		c0.1,0.5,0.2,0.9,0.4,1.3c0.2,0.4,0.5,0.7,0.8,0.9C171.6,258,172.1,258.1,172.6,258.1z"/>
	<path class="st8" d="M188,244.1v3.2h4.9v2.5H188v5.7c0,0.5,0.1,0.9,0.2,1.2c0.1,0.3,0.3,0.6,0.5,0.8c0.2,0.2,0.4,0.3,0.7,0.4
		c0.3,0.1,0.6,0.1,1,0.1c0.3,0,0.5,0,0.8,0c0.3,0,0.5-0.1,0.8-0.1c0.2,0,0.5-0.1,0.7-0.1c0.2,0,0.4-0.1,0.6-0.1l0.3,2.3
		c-0.2,0.1-0.5,0.3-0.8,0.4c-0.3,0.1-0.7,0.2-1,0.2c-0.4,0.1-0.7,0.1-1.1,0.2c-0.4,0-0.8,0.1-1.1,0.1c-0.7,0-1.4-0.1-2-0.3
		c-0.6-0.2-1.1-0.5-1.5-0.9c-0.4-0.4-0.7-0.9-1-1.5c-0.2-0.6-0.3-1.4-0.3-2.2v-6h-3v-2.5h3v-3.2H188z"/>
	<path class="st8" d="M206.3,247.1c0.5,0,1,0,1.4,0.1c0.4,0.1,0.8,0.1,1.1,0.2l-0.5,3.4c-0.4-0.1-0.9-0.2-1.4-0.2
		c-0.5-0.1-0.9-0.1-1.3-0.1c-1,0-1.7,0.2-2.3,0.5c-0.6,0.4-1,0.9-1.3,1.6v7.9h-3.4v-13.2h3.2l0.2,2.2c0.5-0.7,1.2-1.3,1.9-1.8
		C204.6,247.3,205.4,247.1,206.3,247.1z"/>
	<path class="st8" d="M212.7,247.3h7.2v10.4h3.6v2.8h-10.8v-2.8h3.8v-7.7h-3.8V247.3z M216.2,243.9c0-0.3,0-0.5,0.1-0.7
		c0.1-0.2,0.2-0.4,0.4-0.6c0.2-0.2,0.4-0.3,0.6-0.4c0.2-0.1,0.5-0.1,0.8-0.1c0.6,0,1.1,0.2,1.4,0.5c0.4,0.3,0.5,0.8,0.5,1.3
		c0,0.5-0.2,1-0.5,1.3c-0.4,0.3-0.8,0.5-1.4,0.5c-0.3,0-0.6,0-0.8-0.1c-0.2-0.1-0.4-0.2-0.6-0.4c-0.2-0.2-0.3-0.4-0.4-0.6
		C216.3,244.4,216.2,244.2,216.2,243.9z"/>
	<path class="st8" d="M232.6,258.1c0.3,0,0.7,0,1-0.1c0.3-0.1,0.6-0.2,0.8-0.4c0.2-0.2,0.4-0.4,0.5-0.6c0.1-0.3,0.2-0.5,0.2-0.8h3.2
		c0,0.7-0.1,1.3-0.4,1.9c-0.3,0.6-0.7,1.1-1.2,1.5c-0.5,0.4-1.1,0.8-1.8,1c-0.7,0.2-1.4,0.4-2.2,0.4c-1,0-1.9-0.2-2.7-0.5
		c-0.8-0.3-1.4-0.8-1.9-1.4c-0.5-0.6-0.9-1.3-1.2-2.1c-0.3-0.8-0.4-1.7-0.4-2.6v-0.4c0-0.9,0.1-1.8,0.4-2.6c0.3-0.8,0.7-1.5,1.2-2.1
		c0.5-0.6,1.2-1.1,1.9-1.4c0.8-0.3,1.7-0.5,2.7-0.5c0.8,0,1.6,0.1,2.3,0.4c0.7,0.2,1.3,0.6,1.8,1c0.5,0.4,0.9,1,1.2,1.6
		c0.3,0.6,0.4,1.3,0.4,2.1h-3.2c0-0.3,0-0.6-0.1-0.9c-0.1-0.3-0.3-0.5-0.5-0.8c-0.2-0.2-0.5-0.4-0.8-0.5c-0.3-0.1-0.6-0.2-1-0.2
		c-0.5,0-1,0.1-1.3,0.3c-0.4,0.2-0.6,0.5-0.8,0.9c-0.2,0.4-0.4,0.8-0.4,1.3c-0.1,0.5-0.1,1-0.1,1.5v0.4c0,0.5,0,1,0.1,1.5
		c0.1,0.5,0.2,0.9,0.4,1.3c0.2,0.4,0.5,0.7,0.8,0.9C231.7,258,232.1,258.1,232.6,258.1z"/>
	<path class="st8" d="M242.7,247.3h7.2v10.4h3.6v2.8h-10.8v-2.8h3.8v-7.7h-3.8V247.3z M246.2,243.9c0-0.3,0-0.5,0.1-0.7
		c0.1-0.2,0.2-0.4,0.4-0.6c0.2-0.2,0.4-0.3,0.6-0.4c0.2-0.1,0.5-0.1,0.8-0.1c0.6,0,1.1,0.2,1.4,0.5c0.4,0.3,0.5,0.8,0.5,1.3
		c0,0.5-0.2,1-0.5,1.3c-0.4,0.3-0.8,0.5-1.4,0.5c-0.3,0-0.6,0-0.8-0.1c-0.2-0.1-0.4-0.2-0.6-0.4c-0.2-0.2-0.3-0.4-0.4-0.6
		C246.3,244.4,246.2,244.2,246.2,243.9z"/>
	<path class="st8" d="M263,244.1v3.2h4.9v2.5H263v5.7c0,0.5,0.1,0.9,0.2,1.2c0.1,0.3,0.3,0.6,0.5,0.8c0.2,0.2,0.4,0.3,0.7,0.4
		c0.3,0.1,0.6,0.1,1,0.1c0.3,0,0.5,0,0.8,0c0.3,0,0.5-0.1,0.8-0.1c0.2,0,0.5-0.1,0.7-0.1c0.2,0,0.4-0.1,0.6-0.1l0.3,2.3
		c-0.2,0.1-0.5,0.3-0.8,0.4c-0.3,0.1-0.7,0.2-1,0.2c-0.4,0.1-0.7,0.1-1.1,0.2c-0.4,0-0.8,0.1-1.1,0.1c-0.7,0-1.4-0.1-2-0.3
		c-0.6-0.2-1.1-0.5-1.5-0.9c-0.4-0.4-0.7-0.9-1-1.5c-0.2-0.6-0.3-1.4-0.3-2.2v-6h-3v-2.5h3v-3.2H263z"/>
	<path class="st8" d="M277.4,255l0.4,1.4l3.5-9.1h3.7l-6.7,15.2c-0.1,0.3-0.3,0.7-0.6,1.1c-0.2,0.4-0.5,0.8-0.9,1.1
		c-0.4,0.3-0.8,0.6-1.3,0.8c-0.5,0.2-1.1,0.3-1.8,0.3c-0.2,0-0.3,0-0.5,0c-0.1,0-0.3,0-0.4,0c-0.1,0-0.3,0-0.4-0.1
		c-0.1,0-0.3-0.1-0.4-0.1l0.4-2.6c0.1,0,0.3,0,0.5,0c0.2,0,0.4,0,0.5,0c0.3,0,0.5-0.1,0.7-0.2c0.2-0.2,0.4-0.3,0.5-0.5
		s0.3-0.4,0.4-0.5c0.1-0.2,0.2-0.2,0.2-0.2l0.8-1.5l-5.6-12.6h3.7L277.4,255z"/>
</g>
<g>
</g>
<g>
</g>
<g>
</g>
<g>
</g>
<g>
</g>
<g>
</g>
</svg>
