<?xml version="1.0" encoding="utf-8"?>
<!-- Generator: Adobe Illustrator 19.2.1, SVG Export Plug-In . SVG Version: 6.00 Build 0)  -->
<svg version="1.1" id="Calque_1" xmlns="http://www.w3.org/2000/svg" xmlns:xlink="http://www.w3.org/1999/xlink" x="0px" y="0px"
	 viewBox="0 0 595.3 841.9" style="enable-background:new 0 0 595.3 841.9;" xml:space="preserve">
<style type="text/css">
	.st0{fill:#818283;}
	.st1{fill:none;}
	.st2{fill:#FFFFFF;}
	.st3{fill:#EDEDED;}
	.st4{fill:#C6C6C6;}
	.st5{fill:#DADADA;}
	.st6{fill:#F6F6F6;}
	.st7{fill:#878787;}
	.st8{fill:#4D2B12;}
	.st9{fill:#6D3B0F;}
</style>
<circle class="st0" cx="422.2" cy="26.2" r="1.2"/>
<g>
	<rect x="104.4" y="433.3" class="st1" width="177.4" height="29.3"/>
	<path class="st2" d="M114.7,448.3h-5.3l-1,3.7h-3.6l5.8-17.8h3.1l5.7,17.8h-3.6L114.7,448.3z M110.2,445.4h3.7l-1.8-6.5
		L110.2,445.4z"/>
	<path class="st2" d="M141.9,449.6c0.3,0,0.7,0,1-0.1c0.3-0.1,0.6-0.2,0.8-0.4c0.2-0.2,0.4-0.4,0.5-0.6c0.1-0.3,0.2-0.5,0.2-0.8h3.2
		c0,0.7-0.1,1.3-0.4,1.9c-0.3,0.6-0.7,1.1-1.2,1.5c-0.5,0.4-1.1,0.8-1.8,1c-0.7,0.2-1.4,0.4-2.2,0.4c-1,0-1.9-0.2-2.7-0.5
		c-0.8-0.3-1.4-0.8-1.9-1.4c-0.5-0.6-0.9-1.3-1.2-2.1c-0.3-0.8-0.4-1.7-0.4-2.6v-0.4c0-0.9,0.1-1.8,0.4-2.6c0.3-0.8,0.7-1.5,1.2-2.1
		c0.5-0.6,1.2-1.1,1.9-1.4c0.8-0.3,1.7-0.5,2.7-0.5c0.8,0,1.6,0.1,2.3,0.4c0.7,0.2,1.3,0.6,1.8,1c0.5,0.4,0.9,1,1.2,1.6
		c0.3,0.6,0.4,1.3,0.4,2.1h-3.2c0-0.3,0-0.6-0.1-0.9c-0.1-0.3-0.3-0.5-0.5-0.8c-0.2-0.2-0.5-0.4-0.8-0.5c-0.3-0.1-0.6-0.2-1-0.2
		c-0.5,0-1,0.1-1.3,0.3c-0.4,0.2-0.6,0.5-0.8,0.9c-0.2,0.4-0.4,0.8-0.4,1.3c-0.1,0.5-0.1,1-0.1,1.5v0.4c0,0.5,0,1,0.1,1.5
		c0.1,0.5,0.2,0.9,0.4,1.3c0.2,0.4,0.5,0.7,0.8,0.9C141,449.5,141.4,449.6,141.9,449.6z"/>
	<path class="st2" d="M151.8,433.3h7.4v16h3.8v2.8h-11.2v-2.8h4v-13.2h-4V433.3z"/>
	<path class="st2" d="M172.5,452.3c-1,0-1.9-0.2-2.8-0.5c-0.8-0.3-1.5-0.8-2.1-1.4c-0.6-0.6-1.1-1.2-1.4-2c-0.3-0.8-0.5-1.6-0.5-2.5
		v-0.5c0-1,0.2-1.9,0.5-2.8c0.3-0.8,0.8-1.6,1.3-2.2c0.6-0.6,1.2-1.1,2-1.4s1.6-0.5,2.6-0.5c1,0,1.8,0.2,2.5,0.5
		c0.7,0.3,1.4,0.8,1.9,1.3c0.5,0.6,0.9,1.3,1.2,2.1s0.4,1.7,0.4,2.7v1.4h-9c0.1,0.4,0.2,0.9,0.4,1.2c0.2,0.4,0.5,0.7,0.8,1
		c0.3,0.3,0.7,0.5,1.1,0.6c0.4,0.1,0.8,0.2,1.3,0.2c0.3,0,0.7,0,1-0.1c0.3-0.1,0.6-0.2,0.9-0.3c0.3-0.1,0.6-0.3,0.8-0.5
		c0.3-0.2,0.5-0.4,0.7-0.7l1.7,1.8c-0.2,0.3-0.5,0.6-0.8,0.9c-0.3,0.3-0.7,0.5-1.2,0.8c-0.5,0.2-1,0.4-1.5,0.5
		C173.8,452.2,173.2,452.3,172.5,452.3z M172.1,441.3c-0.4,0-0.7,0.1-1,0.2c-0.3,0.1-0.6,0.3-0.8,0.6c-0.2,0.3-0.4,0.6-0.6,0.9
		c-0.2,0.3-0.3,0.7-0.4,1.2h5.6v-0.3c0-0.4-0.1-0.7-0.2-1s-0.3-0.6-0.5-0.8c-0.2-0.2-0.5-0.4-0.8-0.5
		C172.9,441.4,172.5,441.3,172.1,441.3z"/>
	<path class="st2" d="M189.4,452c-0.1-0.2-0.2-0.3-0.2-0.6c-0.1-0.2-0.1-0.4-0.1-0.7c-0.2,0.2-0.4,0.4-0.6,0.6
		c-0.2,0.2-0.5,0.3-0.8,0.5c-0.3,0.1-0.6,0.2-1,0.3c-0.4,0.1-0.7,0.1-1.2,0.1c-0.7,0-1.3-0.1-1.9-0.3c-0.6-0.2-1.1-0.5-1.5-0.8
		c-0.4-0.3-0.7-0.8-1-1.3c-0.2-0.5-0.3-1-0.3-1.6c0-1.4,0.5-2.5,1.6-3.2c1-0.8,2.6-1.1,4.6-1.1h1.9v-0.8c0-0.6-0.2-1.1-0.6-1.5
		s-1-0.6-1.8-0.6c-0.7,0-1.2,0.1-1.5,0.4c-0.3,0.3-0.5,0.7-0.5,1.2h-3.4c0-0.6,0.1-1.1,0.4-1.6c0.2-0.5,0.6-0.9,1.1-1.3
		c0.5-0.4,1.1-0.7,1.7-0.9c0.7-0.2,1.5-0.3,2.4-0.3c0.8,0,1.5,0.1,2.2,0.3c0.7,0.2,1.3,0.5,1.8,0.9c0.5,0.4,0.9,0.9,1.2,1.4
		c0.3,0.6,0.4,1.3,0.4,2v5.7c0,0.7,0,1.3,0.1,1.8c0.1,0.5,0.2,0.9,0.4,1.2v0.2H189.4z M186.1,449.7c0.3,0,0.7,0,1-0.1
		s0.6-0.2,0.8-0.3c0.2-0.1,0.4-0.3,0.6-0.4c0.2-0.2,0.3-0.3,0.4-0.5V446h-1.7c-0.5,0-1,0.1-1.4,0.2c-0.4,0.1-0.7,0.2-0.9,0.4
		c-0.2,0.2-0.4,0.4-0.5,0.7c-0.1,0.3-0.2,0.5-0.2,0.8c0,0.5,0.2,0.8,0.5,1.1C185,449.5,185.5,449.7,186.1,449.7z"/>
	<path class="st2" d="M199.2,438.8l0.2,1.8c0.5-0.7,1-1.2,1.7-1.5c0.7-0.4,1.4-0.5,2.2-0.5c0.7,0,1.3,0.1,1.8,0.3
		c0.6,0.2,1,0.5,1.4,0.9c0.4,0.4,0.7,1,0.9,1.6c0.2,0.7,0.3,1.5,0.3,2.4v8.1h-3.4V444c0-0.5-0.1-1-0.2-1.3c-0.1-0.3-0.3-0.6-0.5-0.8
		s-0.5-0.3-0.8-0.4c-0.3-0.1-0.7-0.1-1-0.1c-0.6,0-1.1,0.1-1.5,0.3c-0.4,0.2-0.7,0.6-1,1v9.4h-3.4v-13.2H199.2z"/>
	<path class="st2" d="M232,449.6c0.3,0,0.7,0,1-0.1c0.3-0.1,0.6-0.2,0.8-0.4c0.2-0.2,0.4-0.4,0.5-0.6c0.1-0.3,0.2-0.5,0.2-0.8h3.2
		c0,0.7-0.1,1.3-0.4,1.9c-0.3,0.6-0.7,1.1-1.2,1.5c-0.5,0.4-1.1,0.8-1.8,1c-0.7,0.2-1.4,0.4-2.2,0.4c-1,0-1.9-0.2-2.7-0.5
		c-0.8-0.3-1.4-0.8-1.9-1.4c-0.5-0.6-0.9-1.3-1.2-2.1c-0.3-0.8-0.4-1.7-0.4-2.6v-0.4c0-0.9,0.1-1.8,0.4-2.6c0.3-0.8,0.7-1.5,1.2-2.1
		c0.5-0.6,1.2-1.1,1.9-1.4c0.8-0.3,1.7-0.5,2.7-0.5c0.8,0,1.6,0.1,2.3,0.4c0.7,0.2,1.3,0.6,1.8,1c0.5,0.4,0.9,1,1.2,1.6
		c0.3,0.6,0.4,1.3,0.4,2.1h-3.2c0-0.3,0-0.6-0.1-0.9c-0.1-0.3-0.3-0.5-0.5-0.8c-0.2-0.2-0.5-0.4-0.8-0.5c-0.3-0.1-0.6-0.2-1-0.2
		c-0.5,0-1,0.1-1.3,0.3c-0.4,0.2-0.6,0.5-0.8,0.9c-0.2,0.4-0.4,0.8-0.4,1.3c-0.1,0.5-0.1,1-0.1,1.5v0.4c0,0.5,0,1,0.1,1.5
		c0.1,0.5,0.2,0.9,0.4,1.3c0.2,0.4,0.5,0.7,0.8,0.9C231,449.5,231.4,449.6,232,449.6z"/>
	<path class="st2" d="M249.5,450.2c-0.4,0.7-1,1.2-1.6,1.6c-0.6,0.4-1.3,0.6-2.1,0.6c-0.7,0-1.3-0.1-1.9-0.3c-0.6-0.2-1.1-0.5-1.5-1
		c-0.4-0.5-0.7-1-0.9-1.8c-0.2-0.7-0.3-1.6-0.3-2.6v-7.8h3.4v7.8c0,0.5,0,1,0.1,1.4c0.1,0.4,0.2,0.7,0.4,0.9s0.4,0.4,0.7,0.5
		c0.3,0.1,0.6,0.1,1,0.1c0.7,0,1.2-0.1,1.6-0.4c0.4-0.3,0.7-0.6,1-1.1v-9.3h3.4V452h-3.1L249.5,450.2z"/>
	<path class="st2" d="M268,445.6c0,1-0.1,1.9-0.3,2.7c-0.2,0.8-0.6,1.5-1,2.1c-0.4,0.6-1,1.1-1.6,1.4c-0.6,0.3-1.4,0.5-2.2,0.5
		c-0.7,0-1.3-0.1-1.9-0.4s-1-0.6-1.4-1v6.2h-3.4v-18.3h3.1l0.1,1.3c0.4-0.5,0.9-0.9,1.4-1.1c0.6-0.3,1.2-0.4,1.9-0.4
		c0.8,0,1.6,0.2,2.2,0.5c0.6,0.3,1.2,0.8,1.6,1.4s0.8,1.3,1,2.1c0.2,0.8,0.3,1.7,0.3,2.7V445.6z M264.6,445.3c0-0.6-0.1-1.1-0.2-1.6
		c-0.1-0.5-0.3-0.9-0.5-1.3c-0.2-0.4-0.5-0.6-0.8-0.8c-0.3-0.2-0.7-0.3-1.2-0.3c-0.6,0-1.1,0.1-1.5,0.3c-0.4,0.2-0.7,0.6-0.9,1v5.5
		c0.2,0.4,0.5,0.7,0.9,1c0.4,0.2,0.9,0.4,1.5,0.4c0.5,0,0.9-0.1,1.2-0.3c0.3-0.2,0.6-0.5,0.8-0.9c0.2-0.4,0.4-0.8,0.5-1.3
		s0.1-1,0.1-1.5V445.3z"/>
</g>
<g>
	<rect x="220.1" y="241.8" class="st1" width="186.3" height="29.3"/>
	<path class="st2" d="M234.1,255c-0.1,0.9-0.2,1.7-0.6,2.4c-0.3,0.7-0.8,1.3-1.3,1.8c-0.6,0.5-1.2,0.9-2,1.2
		c-0.8,0.3-1.6,0.4-2.5,0.4c-1,0-2-0.2-2.8-0.6c-0.8-0.4-1.5-0.9-2.1-1.6c-0.6-0.7-1-1.5-1.3-2.5s-0.4-2.1-0.4-3.2v-2.4
		c0-1.2,0.2-2.3,0.5-3.2c0.3-1,0.7-1.8,1.3-2.5c0.6-0.7,1.3-1.2,2.1-1.6c0.8-0.4,1.7-0.6,2.7-0.6c1,0,1.8,0.1,2.6,0.4
		c0.8,0.3,1.4,0.7,1.9,1.2s1,1.1,1.3,1.9c0.3,0.7,0.5,1.6,0.6,2.5h-3.4c0-0.5-0.1-1-0.2-1.4c-0.1-0.4-0.3-0.7-0.5-1
		c-0.2-0.3-0.5-0.5-0.9-0.6c-0.4-0.1-0.8-0.2-1.3-0.2c-0.5,0-1,0.1-1.4,0.3c-0.4,0.2-0.7,0.6-1,1c-0.3,0.4-0.4,1-0.6,1.6
		c-0.1,0.6-0.2,1.4-0.2,2.2v2.4c0,1.8,0.2,3,0.7,3.9c0.5,0.8,1.3,1.3,2.3,1.3c0.9,0,1.6-0.2,2.1-0.7c0.5-0.5,0.8-1.2,0.9-2.3H234.1z
		"/>
	<path class="st2" d="M236.4,253.8c0-1,0.1-1.8,0.4-2.7c0.3-0.8,0.7-1.5,1.2-2.1c0.5-0.6,1.2-1.1,2-1.4c0.8-0.3,1.6-0.5,2.6-0.5
		c1,0,1.9,0.2,2.6,0.5c0.8,0.3,1.4,0.8,2,1.4c0.5,0.6,0.9,1.3,1.2,2.1c0.3,0.8,0.4,1.7,0.4,2.7v0.3c0,1-0.1,1.9-0.4,2.7
		c-0.3,0.8-0.7,1.5-1.2,2.1c-0.5,0.6-1.2,1.1-2,1.4c-0.8,0.3-1.7,0.5-2.6,0.5c-1,0-1.9-0.2-2.7-0.5c-0.8-0.3-1.4-0.8-2-1.4
		c-0.5-0.6-0.9-1.3-1.2-2.1c-0.3-0.8-0.4-1.7-0.4-2.7V253.8z M239.8,254.1c0,0.6,0.1,1.1,0.2,1.6c0.1,0.5,0.3,0.9,0.5,1.3
		c0.2,0.4,0.5,0.6,0.9,0.9c0.4,0.2,0.8,0.3,1.3,0.3c0.5,0,0.9-0.1,1.3-0.3c0.4-0.2,0.6-0.5,0.9-0.9c0.2-0.4,0.4-0.8,0.5-1.3
		c0.1-0.5,0.2-1,0.2-1.6v-0.3c0-0.5-0.1-1-0.2-1.5c-0.1-0.5-0.3-0.9-0.5-1.3c-0.2-0.4-0.5-0.7-0.9-0.9c-0.4-0.2-0.8-0.3-1.3-0.3
		c-0.5,0-0.9,0.1-1.3,0.3c-0.4,0.2-0.7,0.5-0.9,0.9c-0.2,0.4-0.4,0.8-0.5,1.3c-0.1,0.5-0.2,1-0.2,1.5V254.1z"/>
	<path class="st2" d="M255.1,260.5v-10.7h-3.5v-2.5h3.5v-0.7c0-0.9,0.1-1.6,0.4-2.3c0.3-0.7,0.7-1.2,1.2-1.7c0.5-0.5,1.1-0.8,1.9-1
		c0.7-0.2,1.6-0.3,2.5-0.3c0.3,0,0.6,0,0.8,0c0.3,0,0.5,0,0.8,0.1c0.3,0,0.5,0.1,0.8,0.1c0.3,0,0.5,0.1,0.8,0.1l-0.2,2.7
		c-0.3-0.1-0.7-0.1-1-0.2s-0.9-0.1-1.4-0.1c-1.1,0-1.8,0.2-2.3,0.7c-0.5,0.4-0.7,1.1-0.7,1.9v0.7h4.8v2.5h-4.8v10.7H255.1z"/>
	<path class="st2" d="M270.1,260.5v-10.7h-3.5v-2.5h3.5v-0.7c0-0.9,0.1-1.6,0.4-2.3c0.3-0.7,0.7-1.2,1.2-1.7c0.5-0.5,1.1-0.8,1.9-1
		c0.7-0.2,1.6-0.3,2.5-0.3c0.3,0,0.6,0,0.8,0c0.3,0,0.5,0,0.8,0.1c0.3,0,0.5,0.1,0.8,0.1c0.3,0,0.5,0.1,0.8,0.1l-0.2,2.7
		c-0.3-0.1-0.7-0.1-1-0.2s-0.9-0.1-1.4-0.1c-1.1,0-1.8,0.2-2.3,0.7c-0.5,0.4-0.7,1.1-0.7,1.9v0.7h4.8v2.5h-4.8v10.7H270.1z"/>
	<path class="st2" d="M288.3,260.8c-1,0-1.9-0.2-2.8-0.5s-1.5-0.8-2.1-1.4c-0.6-0.6-1.1-1.2-1.4-2c-0.3-0.8-0.5-1.6-0.5-2.5v-0.5
		c0-1,0.2-1.9,0.5-2.8c0.3-0.8,0.8-1.6,1.3-2.2c0.6-0.6,1.2-1.1,2-1.4c0.8-0.3,1.6-0.5,2.6-0.5c1,0,1.8,0.2,2.5,0.5
		c0.7,0.3,1.4,0.8,1.9,1.3c0.5,0.6,0.9,1.3,1.2,2.1c0.3,0.8,0.4,1.7,0.4,2.7v1.4h-9c0.1,0.4,0.2,0.9,0.4,1.2c0.2,0.4,0.5,0.7,0.8,1
		c0.3,0.3,0.7,0.5,1.1,0.6c0.4,0.1,0.8,0.2,1.3,0.2c0.3,0,0.7,0,1-0.1c0.3-0.1,0.6-0.2,0.9-0.3c0.3-0.1,0.6-0.3,0.8-0.5
		c0.3-0.2,0.5-0.4,0.7-0.7l1.7,1.8c-0.2,0.3-0.5,0.6-0.8,0.9c-0.3,0.3-0.7,0.5-1.2,0.8c-0.5,0.2-1,0.4-1.5,0.5
		S288.9,260.8,288.3,260.8z M287.9,249.8c-0.4,0-0.7,0.1-1,0.2c-0.3,0.1-0.6,0.3-0.8,0.6c-0.2,0.3-0.4,0.6-0.6,0.9
		c-0.2,0.4-0.3,0.7-0.4,1.2h5.6v-0.3c0-0.4-0.1-0.7-0.2-1s-0.3-0.6-0.5-0.8c-0.2-0.2-0.5-0.4-0.8-0.5
		C288.7,249.9,288.3,249.8,287.9,249.8z"/>
	<path class="st2" d="M303.3,260.8c-1,0-1.9-0.2-2.8-0.5s-1.5-0.8-2.1-1.4c-0.6-0.6-1.1-1.2-1.4-2c-0.3-0.8-0.5-1.6-0.5-2.5v-0.5
		c0-1,0.2-1.9,0.5-2.8c0.3-0.8,0.8-1.6,1.3-2.2c0.6-0.6,1.2-1.1,2-1.4c0.8-0.3,1.6-0.5,2.6-0.5c1,0,1.8,0.2,2.5,0.5
		c0.7,0.3,1.4,0.8,1.9,1.3c0.5,0.6,0.9,1.3,1.2,2.1c0.3,0.8,0.4,1.7,0.4,2.7v1.4h-9c0.1,0.4,0.2,0.9,0.4,1.2c0.2,0.4,0.5,0.7,0.8,1
		c0.3,0.3,0.7,0.5,1.1,0.6s0.8,0.2,1.3,0.2c0.3,0,0.7,0,1-0.1c0.3-0.1,0.6-0.2,0.9-0.3c0.3-0.1,0.6-0.3,0.8-0.5
		c0.3-0.2,0.5-0.4,0.7-0.7l1.7,1.8c-0.2,0.3-0.5,0.6-0.8,0.9c-0.3,0.3-0.7,0.5-1.2,0.8c-0.5,0.2-1,0.4-1.5,0.5
		S303.9,260.8,303.3,260.8z M302.9,249.8c-0.4,0-0.7,0.1-1,0.2c-0.3,0.1-0.6,0.3-0.8,0.6c-0.2,0.3-0.4,0.6-0.6,0.9
		c-0.2,0.4-0.3,0.7-0.4,1.2h5.6v-0.3c0-0.4-0.1-0.7-0.2-1s-0.3-0.6-0.5-0.8c-0.2-0.2-0.5-0.4-0.8-0.5
		C303.7,249.9,303.3,249.8,302.9,249.8z"/>
</g>
<path id="XMLID_37_" class="st3" d="M379.4,543.1C379.4,543.1,379.4,543.1,379.4,543.1L379.4,543.1
	C379.4,543.1,379.4,543.1,379.4,543.1z M425.2,551.9c-3.7-1.2-7.7-2.2-11.7-2.9c-4.9-0.9-8.7,10.4-9.4,20.1c-0.3,5,0.1,9.5,1.7,11.7
	c2.1,3,25.7,7.7,33.2-7.4c0.3-0.7,0.6-1.3,0.8-1.9C443.6,561.3,435.8,555.4,425.2,551.9z M467.6,580.3c-1.9-3.9-4.6-7.9-8.1-11.7
	c-0.3,3.5-1.1,7.4-2.5,11.7c-6.9,20.7-44.4,17.1-57,14.6c-4.8-1-12.6,8.5-23.9,18.6c-0.2,0.2-0.3,0.3-0.5,0.5l2.1-0.3
	c-34,39.5-88.5,23.9-103.4,14.3c-0.6-0.3-1.2-0.5-1.8-0.8c-1.5-0.7-2.9-1.4-4.3-2.2c-0.6-0.3-1.1-0.6-1.7-1
	c-0.2-0.1-0.4-0.3-0.7-0.4c-0.4-0.3-0.9-0.5-1.3-0.8c-0.3-0.2-0.6-0.4-0.9-0.5c-0.5-0.3-0.9-0.6-1.4-0.9c-0.3-0.2-0.6-0.4-0.8-0.6
	c-0.3-0.2-0.5-0.4-0.8-0.6c-1.8-1.3-3.6-2.7-5.4-4.1c-0.3-0.2-0.5-0.5-0.8-0.7c-0.6-0.5-1.2-1.1-1.8-1.6c-0.3-0.2-0.5-0.5-0.8-0.7
	c-1.1-1.1-2.3-2.2-3.4-3.3c-0.4-0.4-0.8-0.9-1.2-1.3c-2.5-2.7-5-5.7-7.5-8.9c-0.2-0.3-0.4-0.5-0.6-0.8c-1.1-1.5-2.3-3.1-3.4-4.7
	c-0.2-0.4-0.5-0.7-0.7-1.1c-3.9-5.9-7.8-12.5-11.5-20c-3.2-6.4-6-13.7-8-21.4c-32.7,13.7-51.9,35.8-42.9,70.2
	c0.1,0.5,0.3,1.1,0.5,1.6c18.8,60.5,189.7,75.4,259,28.4C460.3,633,480.5,606.5,467.6,580.3z"/>
<path id="XMLID_15_" class="st4" d="M425.2,551.9c-3.7-1.2-7.7-2.2-11.7-2.9c-4.9-0.9-8.7,10.4-9.4,20.1l-0.3,0.2
	C405.2,554.4,405.2,540.4,425.2,551.9z"/>
<path id="XMLID_24_" class="st2" d="M439.8,571.5c-2.7,20-31.8,14.8-34,9.4c2.1,3,25.7,7.7,33.2-7.4
	C439.3,572.8,439.6,572.1,439.8,571.5z"/>
<path id="XMLID_33_" class="st5" d="M379.4,543.1C379.4,543.1,379.4,543.1,379.4,543.1L379.4,543.1
	C379.4,543.1,379.4,543.1,379.4,543.1z M425.2,551.9c-3.7-1.2-7.7-2.2-11.7-2.9c-4.9-0.9-8.7,10.4-9.4,20.1c-0.3,5,0.1,9.5,1.7,11.7
	c2.1,3,25.7,7.7,33.2-7.4c0.3-0.7,0.6-1.3,0.8-1.9C443.6,561.3,435.8,555.4,425.2,551.9z M467.6,580.3c-1.9-3.9-4.6-7.9-8.1-11.7
	c-0.3,3.5-1.1,7.4-2.5,11.7c-6.9,20.7-44.4,17.1-57,14.6c-4.8-1-12.6,8.5-23.9,18.6c-0.2,0.2-0.3,0.3-0.5,0.5l2.1-0.3
	c-34,39.5-88.5,23.9-103.4,14.3c-0.6-0.3-1.2-0.5-1.8-0.8c-1.5-0.7-2.9-1.4-4.3-2.2c-0.6-0.3-1.1-0.6-1.7-1
	c-0.2-0.1-0.4-0.3-0.7-0.4c-0.4-0.3-0.9-0.5-1.3-0.8c-0.3-0.2-0.6-0.4-0.9-0.5c-0.5-0.3-0.9-0.6-1.4-0.9c-0.3-0.2-0.6-0.4-0.8-0.6
	c-0.3-0.2-0.5-0.4-0.8-0.6c-1.8-1.3-3.6-2.7-5.4-4.1c-0.3-0.2-0.5-0.5-0.8-0.7c-0.6-0.5-1.2-1.1-1.8-1.6c-0.3-0.2-0.5-0.5-0.8-0.7
	c-1.1-1.1-2.3-2.2-3.4-3.3c-0.4-0.4-0.8-0.9-1.2-1.3c-2.5-2.7-5-5.7-7.5-8.9c-0.2-0.3-0.4-0.5-0.6-0.8c-1.1-1.5-2.3-3.1-3.4-4.7
	c-0.2-0.4-0.5-0.7-0.7-1.1c-3.9-5.9-7.8-12.5-11.5-20c-3.2-6.4-6-13.7-8-21.4c-32.7,13.7-51.9,35.8-42.9,70.2
	c0.1,0.5,0.3,1.1,0.5,1.6c27.5,55.6,189.7,68.1,256.7,22.7C455.9,628.6,475.2,604.6,467.6,580.3z"/>
<path id="XMLID_26_" class="st3" d="M421.2,534.7c-9.9,0-0.9-25.1-5.3-34.7c1,2.3,1,6-0.3,10.3c0.2-0.2,0.5-0.4,0.7-0.6
	c-21.6,62.9-17.1,82.8-40.2,103.8c11.3-10.1,19.1-19.6,23.9-18.6c12.6,2.5,50.1,6.1,57-14.6c1.4-4.3,2.2-8.2,2.5-11.7
	C462,539.6,430,534.7,421.2,534.7z M439.8,571.5c-2.7,20-31.8,14.8-34,9.4c-1.6-2.2-2-6.8-1.7-11.7l-0.3,0.2
	c1.4-14.9,1.3-28.9,21.4-17.4C435.8,555.4,443.6,561.3,439.8,571.5z M376.8,544.4c0-0.1,0-0.2,0-0.3c-15,5.6-35,9.4-61.5,9.4
	c-32.1,0-55.2-4.3-71-11c-14,1.6,12.5,75.3,30,85.5c15.2,6.7,32.3,8.7,52.1,8.5c13.2-0.1,24.5-4.8,34.2-11h0
	c5.5-3.5,10.5-7.6,14.9-11.5l-14.7,11.3C374.4,614.4,374.9,567.9,376.8,544.4z"/>
<path id="XMLID_19_" class="st4" d="M274.3,628c-0.6-0.3-1.2-0.5-1.8-0.8c-1.5-0.7-2.9-1.4-4.3-2.2c-0.6-0.3-1.1-0.6-1.7-1
	c-0.2-0.1-0.4-0.3-0.7-0.4c-0.4-0.3-0.9-0.5-1.3-0.8c-0.3-0.2-0.6-0.4-0.9-0.5c-0.5-0.3-0.9-0.6-1.4-0.9c-0.3-0.2-0.6-0.4-0.8-0.6
	c-0.3-0.2-0.5-0.4-0.8-0.6c-1.8-1.3-3.6-2.7-5.4-4.1c-0.3-0.2-0.5-0.5-0.8-0.7c-0.6-0.5-1.2-1.1-1.8-1.6c-0.3-0.2-0.5-0.5-0.8-0.7
	c-1.1-1.1-2.3-2.2-3.4-3.3c-0.4-0.4-0.8-0.9-1.2-1.3c-2.5-2.7-5-5.7-7.5-8.9c-0.2-0.3-0.4-0.5-0.6-0.8c-1.1-1.5-2.3-3.1-3.4-4.7
	c-0.2-0.4-0.5-0.7-0.7-1.1c-3.9-5.9-7.8-12.5-11.5-20c-3.2-6.4-6-13.7-8-21.4c-4.5-17.3-5.2-36.7,1.9-52.5
	c-5.5,15.1,0.9,32.3,26.8,43.3C230.3,544.1,256.8,617.8,274.3,628z"/>
<path id="XMLID_18_" class="st3" d="M379.4,543.2L379.4,543.2C379.4,543.1,379.4,543.1,379.4,543.2
	C379.4,543.1,379.4,543.1,379.4,543.2z"/>
<path id="XMLID_36_" class="st6" d="M415.9,499.9c-23.8-52.7-119.3-43.5-166-28.4c-16.6,5.4-26.8,15.5-32.3,27.6c0,0,0,0,0,0
	c-5.5,15.1,0.9,32.3,26.8,43.3c15.8,6.7,38.9,11,71,11c26.4,0,46.5-3.8,61.5-9.4c0.9-0.3,1.7-0.7,2.6-1c0,0,0,0,0,0
	c6.4-2.6,11.8-5.5,16.3-8.6c11.7-8,17.6-17,19.8-24.2C416.9,505.9,416.9,502.2,415.9,499.9z M410,512.1c-0.5,1-1.2,2.1-1.8,3.1
	c-0.2,0.3-0.4,0.6-0.6,0.9c-0.1,0.1-0.1,0.2-0.2,0.3c-0.4,0.6-0.8,1.2-1.2,1.7c-0.2,0.3-0.4,0.6-0.7,0.9c-0.2,0.2-0.3,0.4-0.5,0.6
	c-0.2,0.2-0.4,0.5-0.6,0.7c-0.4,0.5-0.8,1-1.3,1.5c-0.2,0.2-0.4,0.4-0.6,0.6c-0.3,0.3-0.5,0.6-0.8,0.9c-3.4,3.5-7.5,7-12.4,10.2
	c-1.8,1.2-3.7,2.3-5.7,3.4c-0.5,0.3-1,0.6-1.5,0.8c-1.6,0.8-3.2,1.6-4.9,2.4c-0.4,0.2-0.8,0.4-1.2,0.5
	c-16.1,7.1-37.9,11.7-66.5,11.4c-29.4-0.4-48.9-5.3-61.5-10.5c0,0,0,0,0,0c-13.1-5.4-18.6-11.1-19.7-12.3c-2-2.2-3.8-4.4-5.4-6.6
	c-0.7-1.1-1.4-2.2-2-3.3c-5.1-9.6-4.5-20.3,7.7-33.3c2.1-2.2,5.1-4.4,8.8-6.5c1.9-1.1,4.1-2.2,6.4-3.2c3.2-1.4,6.7-2.8,10.5-4.1h0
	c29.8-10,77.3-14.6,118.8-3.1c4.3,1.2,8.9,2.9,13.4,5.2c0.1,0.1,0.2,0.1,0.3,0.2c11.5,5.8,22.3,14.7,24.8,24.7
	C412.7,503.4,412.3,507.7,410,512.1z"/>
<path id="XMLID_34_" class="st3" d="M439.8,571.5c-0.2,0.6-0.5,1.3-0.8,1.9c-7.4,15.1-31,10.5-33.2,7.4c-1.6-2.2-2-6.8-1.7-11.7
	c0.7-9.7,4.5-21,9.4-20.1c4,0.7,8,1.6,11.7,2.9C435.8,555.4,443.6,561.3,439.8,571.5z"/>
<path id="XMLID_22_" class="st5" d="M439.8,571.5c-0.2,0.6-0.5,1.3-0.8,1.9c-7.4,15.1-31,10.5-33.2,7.4c-1.6-2.2-2-6.8-1.7-11.7
	c0.7-9.7,4.5-21,9.4-20.1c4,0.7,8,1.6,11.7,2.9C435.8,555.4,443.6,561.3,439.8,571.5z"/>
<path id="XMLID_17_" class="st3" d="M249.8,471.6c-16.6,5.4-26.8,15.5-32.3,27.6C222,487,234.1,476.3,249.8,471.6z"/>
<path id="XMLID_11_" class="st4" d="M410,512.1c-0.5,1-1.2,2.1-1.8,3.1c-0.9-6.8-3.7-12.8-8.1-17.9c-3.2-3.8-7.1-7.1-11.6-10
	c0.8-3.7,0.7-10.4-1.6-12.7c11.5,5.8,22.3,14.7,24.8,24.7C412.7,503.4,412.3,507.7,410,512.1z"/>
<path id="XMLID_9_" class="st3" d="M234.8,495.2c-9.7,8.9-12.5,18.4-13.8,24.2c-5.1-9.6-4.5-20.3,7.7-33.3c2.1-2.2,5.1-4.4,8.8-6.5
	C234.8,483.3,234.4,488.1,234.8,495.2z"/>
<path id="XMLID_30_" class="st5" d="M388.5,487.2c-0.4-0.2-0.8-0.5-1.2-0.7c-15.8-9.8-38-14.6-57.7-14.7c-18.2-0.1-33.4,1-46,3.2
	c-1.2,0.2-2.4,0.4-3.6,0.6c-1.1,0.2-2.1,0.4-3.1,0.6c0,0,0,0,0,0c-18.3,3.8-30.6,9.7-38.8,16.2c-1.2,0.9-2.3,1.9-3.4,2.9
	c-0.4-7.1,0-11.9,2.6-15.6c1.9-1.1,4.1-2.2,6.4-3.2c3.2-1.4,6.7-2.8,10.5-4.1h0c29.8-10,77.3-14.6,118.8-3.1
	c4.3,1.2,8.9,2.9,13.4,5.2c0.1,0.1,0.2,0.1,0.3,0.2C389.2,476.8,389.2,483.5,388.5,487.2z"/>
<path id="XMLID_42_" class="st4" d="M408.1,515.2c-0.2,0.3-0.4,0.6-0.6,0.9c-0.1,0.1-0.1,0.2-0.2,0.3c-0.4,0.6-0.8,1.2-1.2,1.7
	c-0.2,0.3-0.4,0.6-0.7,0.9c-0.2,0.2-0.3,0.4-0.5,0.6c-0.2,0.2-0.4,0.5-0.6,0.7c-0.4,0.5-0.8,1-1.3,1.5c-0.2,0.2-0.4,0.4-0.6,0.6
	c-0.3,0.3-0.5,0.6-0.8,0.9c-3.4,3.5-7.5,7-12.4,10.2c-1.8,1.2-3.7,2.3-5.7,3.4c-0.5,0.3-1,0.6-1.5,0.8c-1.6,0.8-3.2,1.6-4.9,2.4
	c-1.3-1-3-1.7-5.1-2.2c-10.5-2.9-28.7-1.2-32.6-6c-0.1-0.2-0.3-0.4-0.4-0.6c-1.8-3.3-6.6-6-13-8.3h0c-7.6-2.7-17.4-4.9-26.8-6.9
	c-15.8-3.4-24.9-25.5-19.8-39.5c0.1-0.4,0.3-0.7,0.4-1.1c1.2-0.2,2.4-0.4,3.6-0.6c12.6-2.1,27.7-3.3,46-3.2
	c19.6,0.2,41.9,4.9,57.7,14.7c0.4,0.2,0.8,0.5,1.2,0.7c4.5,2.9,8.4,6.2,11.6,10C404.4,502.4,407.3,508.4,408.1,515.2z"/>
<path id="XMLID_16_" class="st3" d="M377.2,540.2c-0.4,0.2-0.8,0.4-1.2,0.5c-16.1,7.1-37.9,11.7-66.5,11.4
	c-29.4-0.4-48.9-5.3-61.5-10.5c0,0,0,0,0,0c-13.1-5.4-18.6-11.1-19.7-12.3c-2-2.2-3.8-4.4-5.4-6.6c-0.7-1.1-1.4-2.2-2-3.3
	c1.3-5.9,4.1-15.3,13.8-24.2c1-1,2.2-1.9,3.4-2.9c8.2-6.4,20.5-12.3,38.8-16.2c0,0,0,0,0,0c1-0.2,2.1-0.4,3.1-0.6
	c-0.2,0.4-0.3,0.7-0.4,1.1c-5.1,13.9,4,36,19.8,39.5c9.3,2,19.1,4.2,26.8,6.9h0c6.4,2.3,11.2,5,13,8.3c0.1,0.2,0.2,0.4,0.4,0.6
	c3.9,4.8,22,3.1,32.6,6C374.1,538.5,375.9,539.2,377.2,540.2z"/>
<path id="XMLID_14_" class="st3" d="M379.4,543.2L379.4,543.2C379.4,543.1,379.4,543.1,379.4,543.2
	C379.4,543.1,379.4,543.1,379.4,543.2z"/>
<path id="XMLID_13_" class="st7" d="M377.7,613.7c-34,39.5-88.5,23.9-103.4,14.3c15.2,6.7,32.3,8.7,52.1,8.5
	c20.7-0.1,36.9-11.7,49.1-22.6L377.7,613.7z"/>
<path id="XMLID_12_" class="st3" d="M274.3,628c-17.6-10.2-44.1-83.9-30-85.5L274.3,628z"/>
<path id="XMLID_27_" class="st6" d="M416.3,509.7c-21.6,62.9-17.1,82.8-40.2,103.8c-0.2,0.2-0.3,0.3-0.5,0.5l-14.7,11.3
	c13.5-10.9,14-57.4,15.9-80.9c0-0.1,0-0.2,0-0.3c0.9-0.3,1.7-0.7,2.6-1l0.1,0c0,0,0,0,0-0.1c6.4-2.6,11.8-5.5,16.3-8.6
	c11.7-8,17.6-17,19.8-24.2C415.8,510.1,416,509.9,416.3,509.7z"/>
<path d="M284.3,341.7c5.7-14.4,15-25.9,28.3-34.1c2.4-1.4,2.3-3.1,2.1-5.3c-1.2-17.2,1.2-33.7,9.8-48.9
	c10.5-18.5,26.7-23.3,45.9-14.1c12,5.7,18.2,15.7,20.7,28.1c1.3,6.4,1.4,13.1,1.6,19.7c0.1,2.6,0.6,4,3.1,5c2.8,1.1,3.4-1.1,4.6-2.3
	c7.3-7.3,14.3-15.1,22.2-21.7c4.6-3.8,10.6-6.3,16.3-8.5c10.2-3.7,20-2.1,28.9,4c12.8,8.8,15.8,20.7,8.9,36.7
	c-6.3,14.6-16.5,26.5-28.5,36.6c-5.5,4.6-8.9,9.2-9.6,16.5c-0.4,4.4-2.5,8.9-4.7,12.9c-4.2,7.7-12.7,10.3-20.9,7.3
	c-1.2-0.4-3.4-0.1-4.3,0.7c-2.6,2.3-5.2,3.1-8.5,1.6c-2-0.9-3.5-0.4-5,1.4c-18.2,21.8-48.8,27.4-74.1,13.7c-2.9-1.6-4.3-1-6.5,0.8
	c-5.9,4.8-12.6,7.6-20.3,6.3c-11-1.9-17-9.3-17.7-21.3c-0.6-10.1,1.8-19.8,5.1-29.3C282.5,345.5,283.5,343.6,284.3,341.7z
	 M391,297.4c-1.3-0.6-2.5-1.3-3.9-1.6c-4.1-0.9-8.2-2.2-12.3-2.4c-1.9-0.1-4.8,1.6-5.7,3.3c-0.7,1.4,0.7,4.4,2,5.9
	c1.9,2.2,4.4,3.9,6.9,5.3c9.4,5.4,16.4,13,21.6,22.5c5.1,9.2,7.7,19.2,9.2,29.6c0.6,4.3,3.2,6.8,6.6,5.7c2.1-0.7,4.2-2.3,5.7-4
	c8.8-10.6,9.4-28.8,0.9-39.7C413.7,311.4,403.5,302.9,391,297.4z M390.5,367c2.1,0.6,4.9,1.5,7.8,2c3.6,0.6,6.7-2.2,6-5.6
	c-1.1-5.5-2.1-11.1-4.3-16.1c-5.2-11.4-13-21-22.7-28.9c-3.6-2.9-8-5.3-12.4-6.8c-5-1.6-9.3,1.4-9.3,6.7c0,5.5,0.4,11.3,2.2,16.5
	C363.3,350.4,375.8,359.3,390.5,367z M324.7,265c-6.4,16.9-8.3,31.9-3.1,47.1c1.5,4.4,4.6,8.6,7.9,12.1c3.7,3.9,10.6,4.7,14,2.3
	c4.7-3.3,4.1-8.1,2.8-12.6c-1.9-6.2-4.3-12.2-6.6-18.2c-3.2-8.3-5.2-16.6-3.4-25.5c0.9-4.4,2.1-8.8,2.5-13.2
	c0.2-1.9-1.2-3.9-1.9-5.8c-1.7,0.9-4.1,1.3-5.1,2.7C328.9,258,326.3,262.5,324.7,265z M310.8,372.2c-0.8,4.3,0.1,6.9,4.6,9
	c8.4,3.8,16.8,7.9,25.7,10.1c12.3,3,24.6,1.1,35.9-4.9c5.1-2.7,7.6-11.2,4.2-14.3c-7.2-6.5-15.3-10.6-25.3-6.8
	c-6.4,2.4-12.8,5.1-19.1,7.7c-7,2.8-14,4-21.2,0.6C314.1,372.8,312.4,372.7,310.8,372.2z M343.2,255.3c-3.7,14.2-2.8,30,7.9,44.3
	c0.7,0.9,1.4,1.8,2.3,2.5c2.5,2.1,5.1,1.7,6.7-1.1c1.7-3,3.6-6,4.7-9.2c3.5-9.7,5.7-19.8,3.9-30.1c-0.7-3.8-2.3-8-4.8-10.9
	C357.2,242.9,347.8,244.1,343.2,255.3z M425.7,311.9c2.3-5.3,4-10.3,6.6-14.9c1.7-3,4.3-5.8,7.1-7.9c2.6-2,6.2-2.6,9.1-4.2
	c2.8-1.5,5.8-3.1,7.9-5.4c5.1-5.5,2.7-12.2-4.7-13.3c-3-0.4-6.2-0.3-9.1,0.4c-17.1,4.1-26.4,17.2-35.5,30.5
	C413.1,301.9,418.8,306.4,425.7,311.9z M367.2,359.2c-0.6-0.8-0.8-1.3-1.2-1.7c-4.3-5.8-8.5-11.7-12.9-17.5c-0.8-1-2.5-1.8-3.8-1.8
	c-10.8-0.6-20.5,2.9-29.4,8.5c-3.2,2-6,5.1-8.3,8.2c-3.1,4.1-1.8,7.6,3.2,8.2c4,0.5,8.4-0.1,12.3-1.2c9.5-2.6,18.9-5.5,28.9-4.4
	C359.7,358,363.2,358.6,367.2,359.2z M440.2,329c1.6-1.5,3.2-2.6,4.3-4.1c4.5-6.1,9.4-11.9,13.1-18.5c2.6-4.6,3.9-10.1,5.1-15.4
	c0.4-1.7-1-4.5-2.5-5.5c-1.1-0.8-4,0.1-5.5,1.1c-3.6,2.4-7.1,5.1-10.2,8.1c-2.9,2.9-5.6,6.1-7.7,9.6c-1.9,3.1-2.9,6.7-4.1,10.1
	c-0.4,1-0.4,2.5,0.2,3.4C435,321.4,437.5,325,440.2,329z"/>
<path d="M307.4,347.1c-8,14.5-16.7,28-29.3,38.5c-8.3,6.9-16.4,7.6-24.4,2.5c-4.5-2.9-9-5.9-13.4-9c-7.4-5.1-10.5-12.6-10.8-21.3
	c-0.4-14.8,5.1-27.7,13.8-39.3c6.8-9,15.1-16.2,26-19.9c9.8-3.4,19.3-2.5,28.7,1.8c9.9,4.6,14.9,12.6,14,23.2
	C311.3,331.6,309,339.3,307.4,347.1z M292.2,353.3c1-3.2,2.2-6.4,2.9-9.6c2.7-11-2.1-23.2-11.4-27.9c-2.4-1.2-5.8-1.9-8.2-1.1
	c-3.4,1.2-2.3,4.9-2,7.8c0.1,1.3,0.4,2.5,0.6,3.7c1.8,7.9,1.9,15.8-1.5,23.1c-4.4,9.5-9.8,18.6-14.4,28c-1,2.1-0.6,4.9-0.8,7.4
	c2.6,0.1,5.3,0.4,7.9,0.3c1,0,1.9-1.1,2.8-1.7C279.7,375.9,286.7,365.2,292.2,353.3z M259.4,353.9c2.4-9.4,5-19.2,7.4-29.1
	c0.7-2.8,1.2-5.9-2.2-7.8c-3.3-1.8-5.8,0-8,1.9c-9.1,8.2-16.4,17.7-19.5,29.8c-2,7.9-1.5,15.6,3.4,22.5c2.8,4,5,4.3,7.9,0.3
	C252.2,366.1,255.5,360.2,259.4,353.9z"/>
<path class="st8" d="M391,297.4c12.5,5.5,22.7,14,31,24.7c8.5,10.9,7.9,29.1-0.9,39.7c-1.4,1.7-3.6,3.3-5.7,4
	c-3.3,1.1-6-1.4-6.6-5.7c-1.5-10.4-4.1-20.3-9.2-29.6c-5.2-9.4-12.2-17.1-21.6-22.5c-2.5-1.4-5.1-3.2-6.9-5.3
	c-1.3-1.5-2.6-4.5-2-5.9c0.8-1.7,3.7-3.4,5.7-3.3c4.1,0.2,8.2,1.4,12.3,2.4C388.5,296.1,389.7,296.9,391,297.4z"/>
<path class="st9" d="M390.5,367c-14.7-7.7-27.2-16.6-32.7-32.2c-1.8-5.1-2.3-11-2.2-16.5c0-5.3,4.3-8.4,9.3-6.7
	c4.4,1.4,8.8,3.8,12.4,6.8c9.7,7.9,17.6,17.5,22.7,28.9c2.3,5,3.2,10.7,4.3,16.1c0.7,3.5-2.4,6.2-6,5.6
	C395.4,368.6,392.6,367.6,390.5,367z"/>
<path class="st9" d="M324.7,265c1.6-2.5,4.1-7,7.2-11.1c1-1.4,3.4-1.8,5.1-2.7c0.7,1.9,2.1,4,1.9,5.8c-0.4,4.4-1.6,8.8-2.5,13.2
	c-1.8,8.9,0.2,17.3,3.4,25.5c2.3,6,4.7,12,6.6,18.2c1.3,4.5,2,9.3-2.8,12.6c-3.4,2.3-10.3,1.6-14-2.3c-3.3-3.5-6.4-7.7-7.9-12.1
	C316.4,296.9,318.3,281.9,324.7,265z"/>
<path class="st9" d="M310.8,372.2c1.6,0.4,3.3,0.6,4.8,1.3c7.2,3.4,14.2,2.2,21.2-0.6c6.4-2.6,12.7-5.2,19.1-7.7
	c10-3.8,18.1,0.3,25.3,6.8c3.4,3.1,0.9,11.5-4.2,14.3c-11.3,6.1-23.6,7.9-35.9,4.9c-8.9-2.2-17.3-6.3-25.7-10.1
	C310.9,379.2,310,376.5,310.8,372.2z"/>
<path class="st8" d="M343.2,255.3c4.6-11.2,14-12.5,20.6-4.6c2.5,2.9,4.1,7.1,4.8,10.9c1.8,10.3-0.4,20.4-3.9,30.1
	c-1.1,3.2-3,6.2-4.7,9.2c-1.6,2.8-4.2,3.2-6.7,1.1c-0.9-0.7-1.6-1.6-2.3-2.5C340.4,285.3,339.5,269.5,343.2,255.3z"/>
<path class="st8" d="M425.7,311.9c-6.9-5.5-12.5-10-18.6-14.8c9.1-13.3,18.4-26.4,35.5-30.5c2.9-0.7,6.2-0.8,9.1-0.4
	c7.4,1.1,9.8,7.8,4.7,13.3c-2.1,2.3-5.1,3.9-7.9,5.4c-2.9,1.6-6.5,2.3-9.1,4.2c-2.8,2.1-5.4,4.9-7.1,7.9
	C429.6,301.5,427.9,306.6,425.7,311.9z"/>
<path class="st8" d="M367.2,359.2c-4-0.6-7.5-1.2-11.1-1.6c-10-1.1-19.4,1.7-28.9,4.4c-3.9,1.1-8.3,1.7-12.3,1.2
	c-5-0.6-6.3-4.1-3.2-8.2c2.3-3.1,5.1-6.2,8.3-8.2c8.9-5.6,18.7-9.1,29.4-8.5c1.3,0.1,3,0.8,3.8,1.8c4.4,5.7,8.6,11.6,12.9,17.5
	C366.4,358,366.6,358.4,367.2,359.2z"/>
<path class="st9" d="M440.2,329c-2.7-4-5.2-7.5-7.4-11.2c-0.5-0.9-0.5-2.4-0.2-3.4c1.2-3.4,2.3-7,4.1-10.1c2.1-3.5,4.8-6.7,7.7-9.6
	c3.1-3,6.6-5.7,10.2-8.1c1.5-1,4.4-1.9,5.5-1.1c1.5,1,2.9,3.9,2.5,5.5c-1.2,5.3-2.5,10.8-5.1,15.4c-3.7,6.5-8.6,12.4-13.1,18.5
	C443.4,326.4,441.8,327.5,440.2,329z"/>
<path class="st8" d="M292.2,353.3c-5.6,11.9-12.5,22.6-23.8,29.9c-0.9,0.6-1.9,1.7-2.8,1.7c-2.6,0.1-5.3-0.2-7.9-0.3
	c0.2-2.5-0.2-5.3,0.8-7.4c4.6-9.4,10-18.5,14.4-28c3.4-7.3,3.3-15.2,1.5-23.1c-0.3-1.2-0.5-2.5-0.6-3.7c-0.3-2.9-1.4-6.6,2-7.8
	c2.3-0.8,5.8-0.1,8.2,1.1c9.2,4.7,14,17,11.4,27.9C294.4,346.9,293.2,350.1,292.2,353.3z"/>
<path class="st9" d="M259.4,353.9c-3.9,6.3-7.2,12.2-11.1,17.7c-2.8,3.9-5.1,3.7-7.9-0.3c-4.9-6.9-5.4-14.6-3.4-22.5
	c3.1-12.1,10.4-21.6,19.5-29.8c2.2-2,4.7-3.7,8-1.9c3.4,1.8,2.9,4.9,2.2,7.8C264.4,334.6,261.8,344.5,259.4,353.9z"/>
<path d="M423.2,432c-16.3,2.8-32.3,4.5-48.4,1.2c-10.6-2.2-16.2-8-17.2-17.5c-0.6-5.4-1-10.7-1.4-16.1c-0.6-9,3.3-16.1,9.9-21.7
	c11.3-9.6,24.8-13.3,39.3-13.8c11.3-0.3,22.1,1.7,31.8,7.9c8.7,5.5,14.1,13.5,16.5,23.5c2.6,10.6-0.5,19.5-9.4,25.4
	C437.8,425.3,430.3,428.4,423.2,432z M408.9,424.1c3.1-1.2,6.3-2.3,9.4-3.7c10.2-4.8,16.8-16.2,14.7-26.3c-0.5-2.6-2.1-5.8-4.2-7.1
	c-3-1.9-5.3,1.3-7.3,3.3c-0.9,0.9-1.7,1.8-2.5,2.8c-5,6.3-11.2,11.3-19,13.3c-10.2,2.5-20.6,4-30.8,6.3c-2.3,0.5-4.2,2.6-6.3,4
	c1.6,2.1,3,4.4,4.7,6.4c0.6,0.7,2,0.8,3.1,1.2C383.4,428.4,396.1,427.2,408.9,424.1z M387.9,398.7c8.8-4,18.1-8.1,27.4-12.4
	c2.6-1.2,5.4-2.8,4.7-6.6c-0.7-3.6-3.6-4.6-6.5-5c-12.1-2-24.1-1.8-35.5,3.4c-7.5,3.4-13.1,8.6-15.5,16.7c-1.4,4.7-0.2,6.6,4.7,6.3
	C373.9,400.8,380.5,399.6,387.9,398.7z"/>
<path class="st8" d="M408.9,424.1c-12.8,3.1-25.5,4.3-38.2,0.1c-1.1-0.4-2.5-0.4-3.1-1.2c-1.7-2-3.2-4.2-4.7-6.4
	c2.1-1.4,4-3.5,6.3-4c10.2-2.3,20.6-3.8,30.8-6.3c7.8-1.9,14-6.9,19-13.3c0.8-1,1.6-1.9,2.5-2.8c2.1-2,4.3-5.2,7.3-3.3
	c2.1,1.3,3.7,4.5,4.2,7.1c2,10.2-4.5,21.5-14.7,26.3C415.2,421.8,412,422.8,408.9,424.1z"/>
<path class="st9" d="M387.9,398.7c-7.4,0.9-14,2-20.7,2.4c-4.8,0.3-6-1.7-4.7-6.3c2.4-8.1,8-13.3,15.5-16.7
	c11.4-5.2,23.4-5.3,35.5-3.4c2.9,0.5,5.8,1.4,6.5,5c0.7,3.8-2,5.4-4.7,6.6C406.1,390.6,396.8,394.8,387.9,398.7z"/>
<g>
</g>
<g>
</g>
<g>
</g>
<g>
</g>
<g>
</g>
<g>
</g>
</svg>
