<?xml version="1.0" encoding="utf-8"?>
<!-- Generator: Adobe Illustrator 19.2.1, SVG Export Plug-In . SVG Version: 6.00 Build 0)  -->
<svg version="1.1" id="Calque_1" xmlns="http://www.w3.org/2000/svg" xmlns:xlink="http://www.w3.org/1999/xlink" x="0px" y="0px"
	 viewBox="0 0 595.3 841.9" style="enable-background:new 0 0 595.3 841.9;" xml:space="preserve">
<style type="text/css">
	.st0{fill:#C7C6C7;}
	.st1{fill:#818283;}
	.st2{fill:#FFFFFF;}
	.st3{fill:#808182;}
	.st4{fill:#4C6D7C;}
	.st5{fill:#EDEDED;}
	.st6{fill:#B4B7BB;}
</style>
<path class="st0" d="M134.2,301.5c-22.3,0.5-35,5.8-21-14.1c14-19.9,28.4-46.6,28.9-60.6s8.4-4,22.1,8.3s289.5,96,307.9,98.5
	c18.5,2.5,37.8-4.2,33.8,5.8s-16.7,68-16.7,73.3c0,5.3-14.9,0.2-38.5-14.9C427.2,382.8,150.5,301.2,134.2,301.5z"/>
<circle class="st1" cx="422.2" cy="26.2" r="1.2"/>
<path class="st0" d="M531.7,631.6c-1-4-116-59-141-61.5s-49-14-60-18.5s-82-32.5-100-38s-17.5-20-23.5-37s-42-39-76-52.5
	s-61.3-9.7-68.5,2.5c-5,8.5,2.5,33,19,55s31,32.5,63,45.5s36.5,0,57.5-2c18-5.5,34.5-4,54.5,3.5s76.5,34,87.5,40.5s35.5,22,46,29.5
	c4.5,3.2,2.3,5.3-1.7,6.7c31.2,18,124,61.1,133.7,55.8C533.2,655.1,532.7,635.6,531.7,631.6z M144.3,461.7
	c-9.5-5.6-70.4-42-51.7-43.7l0,0c1.8,0,3.2,0.1,4,0.1c0.1,0,0.2,0,0.4,0c32.2,3.1,69.7,25.3,81,33c1.3,0.9,2.3,2,3,3.1
	c5.2,8.4-5.4,21.9-5.4,21.9s-3.8-1.9-9.1-4.4c-6.4-3-14.9-6.9-21-9.3C145.6,462.4,145.1,462.2,144.3,461.7z"/>
<path class="st2" d="M143.2,470.1c-5,4-11.5-4.5-24.5-9s-53-25.5-51.5-35c1.2-7.8,17.2-8.2,25.4-8.1c-18.6,1.7,42.2,38.1,51.7,43.7
	C146.1,464.8,146.2,467.7,143.2,470.1z"/>
<path class="st2" d="M204.2,512.6c-7-0.5-27.2-19.5-31.5-25.5c-4.4-6.2-7.5-10.7-6.1-15.4c5.2,2.5,9.1,4.4,9.1,4.4
	s10.6-13.4,5.4-21.9c0.5,0,1.1,0.1,1.6,0.4c4.5,2.5,17.5,12.5,20,21s7,23.5,9.5,28.5S211.2,513.1,204.2,512.6z"/>
<path class="st3" d="M133.2,517.1c8.5,2-17-9.5-24.5-15.5C115.7,510.6,124.7,515.1,133.2,517.1z"/>
<path class="st2" d="M508.7,648.1c8.2-2.1,16,1,18.5-5s2,12-6,13S500.7,650.1,508.7,648.1z"/>
<path class="st2" d="M388.5,605.3c-4.1-2.4-7.2-4.3-8.8-5.7c-14-11.5-68.5-45.5-104.5-57s-52-19.5-73-17.5c18-5.5,34.5-4,54.5,3.5
	s76.5,34,87.5,40.5s35.5,22,46,29.5C394.7,601.8,392.5,603.9,388.5,605.3z"/>
<path class="st3" d="M181.1,454.2c-4,0.2-8,8.6-12.4,13.9c-1,1.2-1.7,2.4-2.1,3.6c-6.4-3-14.9-6.9-21-9.3c0,0-0.4-0.2-1.2-0.7
	c-3.5-6.2-13.8-13.1-21.1-18.1c-10.7-7.3-21.4-24.6-26.1-25.5c32.2,3.1,69.7,25.3,81,33C179.4,452,180.4,453.1,181.1,454.2z"/>
<path class="st2" d="M144.3,461.7c-9.5-5.6-70.4-42-51.7-43.7l0,0c1.8,0,3.2,0.1,4,0.1c0.1,0,0.2,0,0.4,0
	c4.7,0.9,15.4,18.2,26.1,25.5C130.5,448.6,140.8,455.5,144.3,461.7z"/>
<path class="st3" d="M96.7,418.1c-0.8,0-2.2,0-4-0.1C93.7,417.9,95.1,417.9,96.7,418.1z"/>
<path class="st2" d="M175.7,476.1c0,0-3.8-1.9-9.1-4.4c0.4-1.2,1-2.4,2.1-3.6c4.4-5.3,8.4-13.7,12.4-13.9
	C186.3,462.7,175.7,476.1,175.7,476.1z"/>
<path class="st4" d="M212.7,254c1.1,0.4,2.2,0.8,3.4,1.1c0,1.1,0.5,1.4,1.3,0.6c0.6,0.1,1.2,0.3,1.8,0.4c1,2.5,3.3,2,5.3,2.2
	c0,0,0.2,0.1,0.2,0.1c0.4,0.4,0.8,0.9,1.3,1.1c6.4,2.8,13.3,4.2,19.9,6.3c1.2,0.4,2.5,1.5,3.9,0.2c0.1,0.1,0.2,0.1,0.3,0.1
	c3.8,2.9,8.4,3.7,12.9,4.7c2.3,0.5,4.4,2.5,7,1.3c0.1,0.1,0.2,0.1,0.3,0.1c0.2,1,0.7,1.2,1.5,0.5c0.8,0.3,1.6,0.5,2.4,0.8
	c0,0.8,0.5,0.9,1.1,1.1c6.8,2,13.6,4.2,20.5,6c4.9,1.3,5.6,2.2,5.5,7.1c-0.1,2-0.6,3.9-0.8,5.9c-0.2,2.1-1.3,2.9-3.5,2.9
	c-4.3,0-7.9,3.7-8.2,8.2c-0.1,0.4-0.3,0.8-0.4,1.2c-1.1,0.6-1.4,1.5-0.6,2.6c0,0.3,0,0.6,0,0.9c-1.4,3,0,6.8,3.1,8.7
	c0.4,0.3,0.8,0.6,1.2,0.9c1.4,1.7,2.4,0.6,3.3-0.5c0.6-0.7,1-1.7,2.1-1.4c2.3,0.6,4-0.7,5.7-1.8c0,0,0,0,0,0
	c0.2,0.5,0.6,0.5,0.9,0.2c0,0,0.2,0,0.2,0c0.1,0.5,0.4,0.5,0.8,0.3c0,0,0.1,0.1,0.1,0.1c1,3.7-1.4,6.6-5.8,6.2
	c-3.5-0.3-5.2,1.2-5.7,4.1c-1.1,5.4-4.6,9.4-7.7,13.6c-1.6,2.2-4,3-6.8,2.1c-4.2-1.4-8.5-2.6-12.8-3.9c-6-1.8-12-4-18.2-5.4
	c-4.3-1-8.7-1.6-12.8-3.4c-1.2-0.5-2.5-0.6-3.8-0.1l-0.2,0.2c0,0,0.1-0.2,0.1-0.2c-4.6-2.3-9.4-3.7-14.5-4l-0.1,0.2
	c0,0,0.1-0.2,0.1-0.2c-0.5-0.8-1.1-1-1.9-0.5c0,0,0,0,0,0c-0.3-0.3-0.6-0.8-1-0.9c-9.8-2.6-19.7-5.1-29.5-7.6
	c-0.5-0.1-1.1,0.2-1.6,0.4c0,0,0,0,0,0c-0.2-0.5-0.5-0.6-1-0.3c0,0,0,0,0,0c-1.6-1.2-3.3-2.2-5.4-1.3c0,0,0,0,0,0
	c-0.6-1.4-1.5-1.1-2.5-0.5c0,0,0,0,0,0c-3.6-2.3-7.5-3.4-11.7-2.9c0,0,0,0,0,0c-0.6-1.6-1.6-1.7-2.9-0.7c0,0-0.1,0-0.1,0
	c-0.9-1.1-2.2-1.8-3.5-2c-6.9-1.3-13.6-3.4-20.5-4.2c-2.3-0.3-2.1-1.6-1.2-2.9c2.8-4.5,5.3-9.2,8.5-13.3c5.7-7.3,9.3-15.4,11.7-24.3
	c2.4-8.8,3.9-17.8,5.5-26.8c0.6-3.2,1.4-3.5,4.2-2c6.4,3.4,12.9,6.8,19.7,9.2c8,2.9,15.9,5.9,23.9,8.7
	C209.3,253.5,210.8,255,212.7,254z M284.6,300l0.1-0.1c1.8-0.8,1.5-2.8,2.2-4.2c1-1.9,0.4-2.9-1.7-3.6c-3.5-1.2-4.2-0.8-5.1,2.9
	c-0.9,3.9-1.5,7.9-3.6,11.3c-1.7,2.7-4.1,2.8-6.8,1.8c-2.9-1-2.3-3.2-1.6-5.2c1.3-3.4,1.5-7.1,3.4-10.4c0.9-1.6,1.7-3.6-1-4.7
	c-2.5-1-3.7,0.1-4.9,2.4c-1.8,3.5-2.5,7.2-3.6,10.9c-2.2,7.9,1,12.5,9.3,12.9c1.8,0.1,3.6,0.1,5.2,1.6c1.7,1.6,3.8,1,4.5-1.2
	C282.5,309.7,284.5,305,284.6,300z M240.8,297.2c-0.7-1.3-1-4.3-4.1-2.8c-2.8,1.3-1.3,3.6-0.4,5.5c2.2,4.7,11.6,8.4,16.5,6.4
	c1.7-0.7,3.5-1.1,4.5-3c2.7-4.8,2.5-8.5-1.2-12.5c-2.1-2.2-4.7-3.9-6.9-6c-1.7-1.6-2.9-3.6-1.2-5.9c1.5-2.1,3.5-2.5,5.9-1.5
	c1.7,0.7,3.1,1.6,3.9,3.3c1,2,2.8,2.9,4.6,1.8c1.8-1.1,1.1-3.1,0.2-4.8c-0.5-1.1-1.4-1.9-2.4-2.5c-2.8-1.7-5.9-2.7-9-3
	c-3.4-0.3-6.6,0.7-8.5,3.9c-2.5,4.3-2.3,6.8,0.5,10.4c2.4,3.1,5.9,5,8.6,7.8c2.6,2.7,1.6,6.7-1.9,7.8
	C246.9,302.9,242.2,300.6,240.8,297.2z"/>
<path class="st5" d="M231.5,329.1c1.3-0.6,2.6-0.4,3.8,0.1c4.1,1.8,8.5,2.4,12.8,3.4c6.1,1.4,12.1,3.6,18.2,5.4
	c4.3,1.3,8.6,2.5,12.8,3.9c2.9,1,5.2,0.1,6.8-2.1c3.1-4.2,6.6-8.2,7.7-13.6c0.6-2.9,2.2-4.4,5.7-4.1c4.5,0.4,6.8-2.5,5.8-6.2
	c1.9-0.5,2.1,0.9,2.2,2.2c0.1,1-0.5,2.1,0.5,3c1.5,0.1,1.3-2.3,2.9-2c0.4,0.8,0,1.6-0.3,2.3c-0.6,1.5-0.8,2.7,0.5,4.1
	c1.4,1.4,2.7,0.7,4.1,0.2c2.4,1.6,4.7,3.7,7.7,4.1c3.5,0.5,4.8,4,7.8,5.2c3,1.1,2.5-0.6,2.6-2.2c4.2,1.9,8.4,2.7,12.5-0.2
	c0.8-0.6,2.2-1.5,1.5-2.8c-0.7-1.2-2.2-1.3-3.4-1.1c-0.9,0.1-1.7,0.7-2.6,1c-0.9,0.3-1.8,0.9-2.4-0.4c1.6-2.3,5.2-1.1,6.7-3.7
	c3.8,0.4,4.8-1.7,5.1-5.1c0.3-2.6-0.5-4.8-1.5-7.1c1.2-0.8,1.1,0.9,1.9,0.9c0.6-2.3-1.7-3.9-1.3-6.2c0.2-1-0.7-1.4-1.7-1.1
	c-1.1,0.4-1.9,0-2-1.2c-0.1-1.3,1.1-1.3,2-1.5c2.1-0.4,3.3-0.8,3.8,2.5c0.3,2.2,2.2,5.4,5.6,6.2c3.4,0.9,6.8,1.8,10.4,1.7
	c2.4-0.1,3.9,1.9,6.1,2.5c4.8,1.3,9.9,1.9,14.4,4.3c1.9,1,4.1,0.3,6.1,0.4c3.3,0.2,6,0.6,8.8-2c1.2-1.1,4.4-0.2,6.4,0.7
	c4.6,2.1,9.7,2.7,14.1,5.6c1.9,1.2,5.4,0.7,8,1.7c0.9,0.4,2.6,0.3,2.4,1.5c-0.2,1.3-1.7,1.5-2.9,1.4c-2.1-0.2-3.4,0.5-4,2.6
	c-0.2,0.7-0.9,1.8-1.5,1.8c-3.4,0.2-4.1,3.1-5.7,5.2c-1.7,2.4-1.3,4.6-0.4,7.3c1.7,4.8,4,9.4,5.8,14.2c1.4,3.5,0.9,8.1,3.4,11.2
	c3.4,4.2,5.4,9.8,11.1,11.9c0.8,0.3,1.2,1,1.6,1.8c0.5,0.9,0.9,2.2,2.2,1.8c1.3-0.4,1.7-1.9,1.5-2.9c-0.5-2.8-0.1-5.5,0.2-8.3
	c0.7-8.9,2.8-17.6,6.1-25.8c2.9-7.3,7.2-14.2,13.6-19.3c1.1-0.9-3.9,1.7-3.3,0.6c1-1.9,4.9,3.7,6.5,4.2c2,0.6,4.9-1.3,4.7-0.3
	c-0.2,0.9-1.9-3.9-1.1-3.3c2.6,1.9,2.8,4.7,3.7,7.4c0.6,1.7,1.4,3,0.6,4.8c-0.6,1.3-0.1,2.5,1.4,2.5c2.3,0.1,2.5,1.2,2,3
	c-0.1,0.3-0.2,0.7,0,1.1c3.3,8.5-1.4,16.1-2.9,24c-0.6,3.2-1,6.4-0.7,9.4c0.3,4.6-1.4,8.7-2.2,13c-0.5,2.8-2.4,3.6-5.3,2.9
	c-5.9-1.5-12-2.4-17.9-3.8c-6.9-1.6-13-5.4-19.5-8.1c-7.3-3.1-15-4.8-22.4-7.5c-5.6-2.1-11.5-3.3-17.2-5.2
	c-7.7-2.5-15.6-4.5-23.2-7.2c-11.5-4.1-23.5-6.7-35-11c-16.3-6.2-33.5-9-49.9-14.8c-9.4,0.4-17.7-3.8-26.4-6.4
	c-7.9-2.4-16-4.3-23.8-7.3C232.7,330.1,231.9,330,231.5,329.1z"/>
<path class="st4" d="M349.1,313.6c1,2.2,1.7,4.4,1.5,7.1c-0.3,3.4-1.3,5.5-5.1,5.1c-0.2-0.2-0.4-0.5-0.5-0.7c-0.5-0.6-1.2-0.9-2-0.6
	c-0.2-0.1-0.4-0.1-0.5,0c-0.3-0.1-0.5-0.1-0.8-0.2c0,0-0.2-0.1-0.2-0.1c-0.3-0.1-0.5-0.2-0.8-0.3c-0.4-0.1-0.8-0.2-1.2-0.3
	c-0.2-0.1-0.5-0.1-0.7-0.2c0,0-0.2-0.1-0.2-0.1c-0.2-0.1-0.5-0.2-0.7-0.3l-0.2-0.1c-0.2-0.1-0.4-0.2-0.6-0.3
	c-0.4-0.2-0.9-0.3-1.3-0.5c-1.2-0.6-2.3-1-2.4,1c-0.1,0.2-0.2,0.5-0.3,0.7c-0.4,2.7,1,4.2,3.5,5c0.7,0.6,1.4,1.1,2.4,0.6
	c0.6,1.2,1.5,0.7,2.4,0.4c0.9-0.3,1.7-0.9,2.6-1c1.3-0.2,2.8-0.1,3.4,1.1c0.7,1.3-0.7,2.2-1.5,2.8c-4.1,3-8.3,2.2-12.5,0.2
	c0,0-0.1,0-0.1,0c-0.1-0.4-0.3-0.6-0.7-0.5c0,0-0.1-0.1-0.1-0.1c-0.3-0.7-0.7-1.3-1.6-1.3c-0.4-0.3-0.8-0.6-1.3-0.9
	c-0.6-1.3-1.2-2.7-1.8-4c0,0,0-0.2,0-0.2c0-0.3,0.1-0.5,0.1-0.8c0,0,0-0.1,0-0.1c0.4-0.3,0.4-0.7,0-1c0-0.7-0.1-1.5-0.1-2.2
	c0.4-0.2,0.5-0.5,0.3-0.9c0.2-0.9,0.4-1.7,0.5-2.6c0.6-0.4,0.6-1,0.3-1.6c0.2-0.2,0.3-0.4,0.3-0.6c0.8-0.3,1.5-0.7,1.4-1.7
	c0,0,0.1-0.1,0-0.1c0.2-0.3,0.3-0.5,0.5-0.8c0.6-0.6,1.1-1.1,1.7-1.7c0.9-0.5,1.7-0.9,2.6-1.4c1.3-0.4,2.7-0.9,4-1.3
	c0.1,0,0.3,0,0.4,0.1c0.4,0,0.8,0,1.2,0c0,0,0.2,0,0.2,0c0.8,0.3,1.6,0.6,2.4,0.9c0.5,0.7,1.2,0.8,2,0.5
	C347.1,311.1,348.1,312.3,349.1,313.6z M345.9,317.4c-1.5-3.4-7.1-4.6-9.5-2.1c-1.3,1.4-1.5,2.7,0.7,3.4c2.1,0.7,4.3,1.2,6.4,1.8
	c0.8,0.2,1.7,0.2,2.3-0.5C346.4,319.3,346.3,318.3,345.9,317.4z"/>
<path class="st6" d="M288.8,304.9c0.3-4.5,3.8-8.3,8.2-8.2c2.2,0,3.3-0.8,3.5-2.9c0.2-2,0.7-3.9,0.8-5.9c0.1-4.9-0.6-5.8-5.5-7.1
	c-6.9-1.8-13.7-4-20.5-6c-0.6-0.2-1.1-0.3-1.1-1.1c3.4-0.8,6.1,1.4,9.1,2.1c5.7,1.3,11.4,2.9,16.8,5.1c3,1.2,4.1,3.2,3.2,6.4
	c-0.5,1.6-0.4,3.3-0.8,4.9c-0.9,3.1,0.2,4.7,3.3,5.8c3.3,1.2,4,4.7,5,7.6c0.4,1.2-0.7,2.2-1.9,2.6c-1.4,0.5-2.9,0.5-3.7-1.1
	c-0.7-1.4-1.1-2.8-1.7-4.2c2.1-0.3,1.8,1.8,2.6,2.7c0.7,0.9,1.4,1.6,2.6,0.9c1-0.6,0.7-1.6,0.4-2.5c-0.5-1.6-1.6-3-2.9-3.8
	c-1.3-0.9-3.1-2.8-4.6-1.4c-1.8,1.7,1.3,2.5,1.6,3.9c-2,0.6-5.6,7.8-4.4,8.2c2.7,0.8,2.5,3.4,4.2,4.7c-1.7,1.1-3.5,2.4-5.7,1.8
	c-1.2-0.3-1.5,0.7-2.1,1.4c-0.9,1.1-1.9,2.2-3.3,0.5c3-0.8,0.9-2.9,1.1-4.4c1.2-0.1,2.9,1.3,3.1-1.3c0.2-2.8,1.5-5.2,2.3-7.8
	c0.3-1,1.1-2.1,0-2.9c-1.2-1-2.1,0.1-3.1,0.8c-0.4,0.3-0.9,0.6-1.4,0.9c-0.2-1.9,1.3-2.5,2.6-3.3c1-0.6,2.9-0.9,2-2.6
	c-0.8-1.5-2.3-0.1-3.4,0.2C291.8,299.6,291.1,303.1,288.8,304.9z"/>
<path class="st4" d="M315.1,325.9c-1.4,0.5-2.6,1.2-4.1-0.2c-1.4-1.4-1.1-2.6-0.5-4.1c0.3-0.7,0.7-1.5,0.3-2.3c0,0,0-0.1,0-0.1
	c0.1-0.3,0.2-0.5,0.4-0.8c0,0,0.1-0.2,0.1-0.2c0.1-0.2,0.2-0.5,0.3-0.7c0,0,0.1-0.2,0.1-0.2c1.4-1.9,2.1-4.1,2.1-6.5
	c0,0,0-0.2,0-0.2c0.1-0.3,0.2-0.6,0.3-0.8c0,0,0-0.1,0-0.1c0.4-0.2,0.5-0.6,0.2-0.9c0,0,0,0,0,0c0.4-0.2,0.5-0.5,0.3-0.9
	c0,0,0,0,0,0c0.4-0.2,0.5-0.5,0.3-0.9c0,0,0,0,0,0c0.4-0.2,0.5-0.5,0.3-0.9c0,0,0,0,0,0c1.2-0.9,1.8-3.9,3.9-2c2,1.7,4,1.7,6.2,1.5
	c2.7-0.3,4.2,0.8,5,3.3c0,0,0-0.1,0-0.1c-1.2,0.8-2.2,2-3.9,1.7c-4.6-1-6.6,0-8.1,4.3C317,318.3,316.1,322.1,315.1,325.9z"/>
<path class="st6" d="M182.9,316.5c0.6-0.1,1.2-0.5,1.6-0.4c9.9,2.5,19.7,5,29.5,7.6c0.4,0.1,0.7,0.6,1,0.9c-3.8,0.9-7.3-1-10.7-2
	c-6.8-1.8-13.8-3.3-20.6-5.2C183.4,317.3,183.2,316.8,182.9,316.5z"/>
<path class="st6" d="M330.2,308.6c-0.8-2.5-2.3-3.6-5-3.3c-2.2,0.2-4.2,0.3-6.2-1.5c-2.1-1.8-2.7,1.1-3.9,2c-1.4-2-0.3-3.6,1.3-4.4
	c1.4-0.8,3.6-0.7,4.5,0.9c1.2,2.2,2.6,1.7,4.4,1.5c1.8-0.2,3.9-0.3,5.1,1.5C331,306.2,331.8,307.5,330.2,308.6z"/>
<path class="st6" d="M270,272.1c-2.6,1.2-4.7-0.8-7-1.3c-4.4-1-9.1-1.8-12.9-4.7c1.1-0.4,2.2-0.2,3.1,0.2
	C258.7,268.7,264.7,269.2,270,272.1z"/>
<path class="st6" d="M217,325.1c5.1,0.2,9.9,1.6,14.5,4c-3,1.5-5.4-1.2-8.2-1.4C221.2,327.5,218.7,326.8,217,325.1z"/>
<path class="st6" d="M313.6,310.7c0.1,2.4-0.6,4.6-2.1,6.5C310.4,314.5,311.5,312.4,313.6,310.7z"/>
<path class="st6" d="M327.5,326.2c0.6,1.4,1.2,2.7,1.8,4c0.2,0.7,0.5,1.5,0.7,2.2C328.9,330.4,326.2,329,327.5,326.2z"/>
<path class="st6" d="M326.4,310.3c1.7,0.2,2.7-0.9,3.9-1.7C329.6,311.6,328.5,312.1,326.4,310.3z"/>
<path class="st6" d="M335.2,310.6c-0.9,0.5-1.7,0.9-2.6,1.4C332.8,309.6,333.2,309.3,335.2,310.6z"/>
<path class="st6" d="M345.4,310.6c-0.8,0.3-1.5,0.3-2-0.5c0.4-0.7,0.9-1.1,1.7-0.7C345.6,309.7,345.6,310.2,345.4,310.6z"/>
<path class="st6" d="M215.1,324.6c0.8-0.4,1.4-0.2,1.9,0.5C216.1,325.8,215.5,325.6,215.1,324.6z"/>
<path class="st6" d="M271.8,272.8c-0.8,0.7-1.3,0.5-1.5-0.5C270.9,272,271.5,272.1,271.8,272.8z"/>
<path class="st6" d="M330.3,314.5c0,1-0.6,1.4-1.4,1.7C328.3,314.7,329.3,314.6,330.3,314.5z"/>
<path class="st6" d="M330.6,331.2c0.9,0,1.3,0.6,1.6,1.3C330.7,333.2,330.7,332.1,330.6,331.2z"/>
<path class="st6" d="M328.6,316.8c0.3,0.6,0.3,1.1-0.3,1.6C327.7,317.8,327.6,317.2,328.6,316.8z"/>
<path class="st6" d="M313.9,309.7c-0.1,0.3-0.2,0.6-0.3,0.8C313.3,310.2,313.4,309.9,313.9,309.7z"/>
<path class="st6" d="M341,309.3c0,0-0.2-0.1-0.2,0c0.1-0.1,0.1-0.2,0.2-0.3C341,309,341,309.2,341,309.3z"/>
<path class="st6" d="M339.6,309.3c-0.1,0-0.3,0-0.4-0.1c0.1-0.1,0.2-0.2,0.3-0.4C339.5,309,339.6,309.2,339.6,309.3z"/>
<path class="st6" d="M314.2,308.7c0.2,0.4,0.1,0.7-0.2,0.9C313.6,309.2,313.7,308.9,314.2,308.7z"/>
<path class="st6" d="M314.5,307.8c0.2,0.4,0.1,0.7-0.3,0.9C313.9,308.3,314,308,314.5,307.8z"/>
<path class="st6" d="M311.5,317.4c-0.1,0.2-0.2,0.5-0.3,0.7C310.7,317.7,310.9,317.5,311.5,317.4z"/>
<path class="st6" d="M311.1,318.4c-0.1,0.3-0.2,0.5-0.4,0.8C310.3,318.6,310.5,318.4,311.1,318.4z"/>
<path class="st6" d="M314.8,306.8c0.2,0.4,0.1,0.7-0.3,0.9C314.2,307.3,314.4,307,314.8,306.8z"/>
<path class="st6" d="M330.9,313.7c-0.2,0.3-0.3,0.5-0.5,0.8C330.1,313.9,330.3,313.6,330.9,313.7z"/>
<path class="st6" d="M305,316c-0.4,0.3-0.7,0.2-0.8-0.3C304.5,315.8,304.8,315.9,305,316z"/>
<path class="st6" d="M304.1,315.6c-0.4,0.3-0.7,0.3-0.9-0.2C303.5,315.2,303.8,315.3,304.1,315.6z"/>
<path class="st6" d="M327.8,321c0.2,0.4,0.1,0.7-0.3,0.9C327.3,321.5,327.4,321.2,327.8,321z"/>
<path class="st6" d="M315.1,305.9c0.2,0.4,0.1,0.7-0.3,0.9C314.6,306.4,314.7,306.1,315.1,305.9z"/>
<path class="st6" d="M332.3,332.6c0.4-0.1,0.7,0,0.7,0.5C332.5,333.4,332.2,333.2,332.3,332.6z"/>
<path class="st6" d="M327.6,324.1c0.3,0.3,0.3,0.7,0,1C327.2,324.7,327.2,324.4,327.6,324.1z"/>
<path class="st6" d="M327.6,325.1c0,0.3-0.1,0.5-0.1,0.8C327,325.6,327.1,325.4,327.6,325.1z"/>
<path class="st2" d="M240.8,297.2c1.4,3.4,6.1,5.7,9.2,4.8c3.6-1,4.5-5,1.9-7.8c-2.7-2.8-6.2-4.7-8.6-7.8c-2.8-3.6-3-6.1-0.5-10.4
	c1.9-3.2,5.1-4.3,8.5-3.9c3.1,0.3,6.2,1.3,9,3c1,0.6,1.9,1.4,2.4,2.5c0.8,1.7,1.6,3.6-0.2,4.8c-1.8,1.1-3.6,0.2-4.6-1.8
	c-0.8-1.7-2.2-2.6-3.9-3.3c-2.4-1-4.4-0.5-5.9,1.5c-1.7,2.3-0.5,4.3,1.2,5.9c2.2,2.1,4.8,3.8,6.9,6c3.8,4,3.9,7.7,1.2,12.5
	c-1.1,1.9-2.9,2.3-4.5,3c-4.9,2-14.2-1.7-16.5-6.4c-0.9-1.9-2.4-4.1,0.4-5.5C239.7,292.9,240,295.9,240.8,297.2z"/>
<path class="st6" d="M284.6,300c-0.1,5.1-2,9.7-3.6,14.4c-0.7,2.2-2.8,2.8-4.5,1.2c-1.6-1.5-3.3-1.5-5.2-1.6
	c-8.3-0.5-11.5-5-9.3-12.9c1-3.7,1.7-7.4,3.6-10.9c1.2-2.3,2.4-3.4,4.9-2.4c2.7,1,1.9,3.1,1,4.7c-1.9,3.2-2.1,7-3.4,10.4
	c-0.7,2-1.3,4.2,1.6,5.2c2.7,0.9,5.2,0.8,6.8-1.8c2.2-3.5,2.7-7.5,3.6-11.3c0.8-3.6,1.6-4,5.1-2.9c2,0.7,2.7,1.7,1.7,3.6
	c-0.7,1.4-0.4,3.4-2.2,4.2c-0.5-0.8-0.1-1.6,0.1-2.4c0.4-1.4,1.6-3.2-0.8-3.7c-2-0.4-1.9,1.5-2.3,2.8c-0.9,3-1.9,6-2.9,9.1
	c-0.8,2.5-2.9,3.7-5.2,4.3c-3.5,0.9-8.2-2-7.6-4.8c0.9-4.5,2.3-9,3.9-13.4c0.5-1.3,0.7-1.9-0.4-2.5c-1.4-0.7-2,0.3-2.3,1.3
	c-1.1,3.7-2.1,7.4-3,11.2c-1.6,7.2,2.1,11,9.4,9.7c1.1-0.2,1.6,0,2.4,0.7c2.8,2.8,3.4,2.5,4.7-1.3
	C281.8,307.3,282.3,303.3,284.6,300z"/>
<path class="st2" d="M288.8,304.9c2.3-1.9,3-5.3,6.4-6.1c1.2-0.3,2.6-1.6,3.4-0.2c0.9,1.7-1,2-2,2.6c-1.3,0.7-2.8,1.4-2.6,3.3
	c-0.2,0.3-0.3,0.5-0.5,0.8c-1,0.3-1.2,0.8-0.5,1.7c-0.2,0.9-0.5,1.8-0.7,2.7c-1.7,1.3-1.4,2.6,0.2,3.8c0.2,0.4,0.4,0.9,0.6,1.3
	c-0.2,1.5,1.9,3.6-1.1,4.4c-0.4-0.3-0.8-0.6-1.2-0.9c-0.6-3.1-2.7-5.6-3.1-8.7c0-0.3,0-0.6,0-0.9c1.1-0.6,1.4-1.5,0.6-2.6
	C288.5,305.7,288.6,305.3,288.8,304.9z"/>
<path class="st6" d="M287.7,309.6c0.4,3.1,2.5,5.7,3.1,8.7C287.7,316.4,286.3,312.6,287.7,309.6z"/>
<path class="st6" d="M288.4,306.1c0.8,1.1,0.4,1.9-0.6,2.6C286.9,307.6,287.2,306.8,288.4,306.1z"/>
<path class="st2" d="M335.6,322.1c0.4,0.2,0.9,0.3,1.3,0.5c0,0.5,0.2,0.7,0.6,0.3c0,0,0.2,0.1,0.2,0.1c0.1,0.5,0.3,0.7,0.7,0.3
	c0,0,0.2,0.1,0.2,0.1c0.1,0.5,0.3,0.6,0.7,0.2c0.4,0.1,0.8,0.2,1.2,0.3c0.1,0.6,0.3,0.7,0.8,0.3c0,0,0.2,0.1,0.2,0.1
	c0.1,0.7,0.4,0.6,0.8,0.2c0.2-0.1,0.4,0,0.5,0c0.4,1.1,1.1,1.4,2,0.6c0.2,0.2,0.4,0.5,0.5,0.7c-1.5,2.6-5.1,1.4-6.7,3.7
	c-1,0.5-1.7,0-2.4-0.6c0.3-2.7-2.2-3.4-3.5-5c0.1-0.2,0.2-0.5,0.3-0.7C334.2,323.3,335,323,335.6,322.1z"/>
<path class="st2" d="M181,472.3c-0.3,0.5-0.5,1.1-0.8,1.2c-0.8,0.2-1.1-0.4-1-1.1c0.1-0.3,0.5-0.8,0.8-0.9
	C180.3,471.5,180.6,472,181,472.3z"/>
<path class="st6" d="M345.9,317.4c0.4,0.9,0.5,1.8-0.2,2.6c-0.6,0.7-1.4,0.7-2.3,0.5c-2.1-0.6-4.3-1.2-6.4-1.8c-2.2-0.7-2-2-0.7-3.4
	C338.8,312.8,344.4,314.1,345.9,317.4z"/>
<path class="st6" d="M332.9,323.9c1.3,1.6,3.8,2.3,3.5,5C333.9,328.1,332.5,326.6,332.9,323.9z"/>
<path class="st6" d="M335.6,322.1c-0.6,0.9-1.4,1.2-2.4,1C333.3,321.1,334.4,321.5,335.6,322.1z"/>
<path class="st6" d="M344.9,325c-1,0.8-1.6,0.5-2-0.6C343.7,324.2,344.4,324.4,344.9,325z"/>
<path class="st6" d="M342.3,324.4c-0.4,0.4-0.7,0.5-0.8-0.2C341.8,324.3,342.1,324.3,342.3,324.4z"/>
<path class="st6" d="M341.3,324.1c-0.4,0.4-0.7,0.3-0.8-0.3C340.8,323.9,341.1,324,341.3,324.1z"/>
<path class="st6" d="M339.4,323.6c-0.4,0.4-0.6,0.3-0.7-0.2C338.9,323.4,339.1,323.5,339.4,323.6z"/>
<path class="st6" d="M338.5,323.3c-0.4,0.4-0.6,0.3-0.7-0.3C338,323.1,338.2,323.2,338.5,323.3z"/>
<path class="st6" d="M337.5,322.9c-0.4,0.3-0.6,0.2-0.6-0.3C337.1,322.7,337.3,322.8,337.5,322.9z"/>
<path class="st4" d="M292.3,309.7c0.2-0.9,0.5-1.8,0.7-2.7c0.9-0.3,1-0.9,0.5-1.7c0.2-0.3,0.3-0.5,0.5-0.8c0.5-0.3,1-0.6,1.4-0.9
	c0.9-0.7,1.9-1.8,3.1-0.8c1,0.8,0.3,2,0,2.9c-0.8,2.6-2.1,5-2.3,7.8c-0.2,2.6-1.9,1.2-3.1,1.3c-0.2-0.4-0.4-0.9-0.6-1.3
	C292.7,312.2,293.1,310.9,292.3,309.7z"/>
<path class="st4" d="M303.4,302.5c-0.4-1.4-3.4-2.3-1.6-3.9c1.5-1.4,3.2,0.5,4.6,1.4c1.3,0.9,2.4,2.2,2.9,3.8
	c0.3,0.9,0.5,1.9-0.4,2.5c-1.2,0.7-1.9-0.1-2.6-0.9c-0.8-0.9-0.6-3-2.6-2.7C303.6,302.7,303.4,302.5,303.4,302.5z"/>
<path class="st2" d="M284.6,300c-2.3,3.3-2.8,7.3-4,11c-1.3,3.8-1.8,4.1-4.7,1.3c-0.8-0.8-1.3-0.9-2.4-0.7c-7.3,1.3-11-2.5-9.4-9.7
	c0.8-3.8,1.9-7.5,3-11.2c0.3-1.1,0.9-2.1,2.3-1.3c1.1,0.6,0.9,1.2,0.4,2.5c-1.6,4.4-2.9,8.9-3.9,13.4c-0.6,2.8,4,5.7,7.6,4.8
	c2.3-0.6,4.4-1.7,5.2-4.3c1-3,2-6,2.9-9.1c0.4-1.3,0.3-3.3,2.3-2.8c2.4,0.5,1.2,2.3,0.8,3.7c-0.2,0.8-0.6,1.6-0.1,2.4
	C284.6,299.8,284.6,300,284.6,300z"/>
<path class="st6" d="M292.3,309.7c0.8,1.2,0.3,2.5,0.2,3.8C290.9,312.3,290.6,311.1,292.3,309.7z"/>
<path class="st6" d="M293.5,305.3c0.5,0.8,0.4,1.3-0.5,1.7C292.4,306.1,292.6,305.6,293.5,305.3z"/>
<g>
</g>
<g>
</g>
<g>
</g>
<g>
</g>
<g>
</g>
<g>
</g>
</svg>
