<?xml version="1.0" encoding="utf-8"?>
<!-- Generator: Adobe Illustrator 19.0.0, SVG Export Plug-In . SVG Version: 6.00 Build 0)  -->
<svg version="1.1" id="Calque_2" xmlns="http://www.w3.org/2000/svg" xmlns:xlink="http://www.w3.org/1999/xlink" x="0px" y="0px"
	 viewBox="0 0 595.3 841.9" style="enable-background:new 0 0 595.3 841.9;" xml:space="preserve">
<style type="text/css">
	.st0{fill:#9D9D9C;}
	.st1{fill:#575756;}
	.st2{fill:#706F6F;}
	.st3{fill:#878787;}
	.st4{fill:#FFFFFF;}
	.st5{fill:#B2B2B2;}
	.st6{fill:#8FB0C2;}
	.st7{fill:#839DAB;}
	.st8{fill:#4B6C7C;}
	.st9{fill:#DADADA;}
	.st10{fill:#EDEDED;}
	.st11{fill:none;}
	.st12{fill:#B3C7D4;}
</style>
<path id="XMLID_26_" class="st0" d="M417.2,317.7c-0.1-0.2-0.2-0.3-0.3-0.5c0.1,6.8-7.8,11.8-22.6,15.4
	c-7.1-70.7-17.3-106.2-42.3-113.3c33.7,4.8,52.9,17.7,56,33.1c2.7,13.5,6.9,38.6,9.1,64.9v0C417.2,317.5,417.2,317.6,417.2,317.7z"
	/>
<path id="XMLID_69_" class="st1" d="M237.2,227.1c-66,20.1-72.5,69.9-72.5,98.1c-4.6-4.2-9.1-8.4-13.2-12.1c-0.7-0.6-1.4-1.3-2-1.8
	c-6.7-6.1-11.7-10.8-13.1-12.1c-0.1-0.1-0.1-0.1-0.2-0.2c-1-0.9-1.5-5.3,0.5-11.5v0c2.7-8.3,10-20.1,26.8-31.7
	C178.9,245.2,202.2,234.7,237.2,227.1z"/>
<path id="XMLID_94_" class="st2" d="M418.5,356.9c-0.1,4-0.3,7.8-0.7,11.5c-0.1,1.3-0.2,2.5-0.4,3.8c-0.7,6.1-6.8,11.5-25.5,14.6v0
	c-4.5,0.7-9.6,1.4-15.6,1.8c-0.6,0-1.2,0.1-1.9,0.1c-0.4,0-0.9,0.1-1.3,0.1c-0.5,0-1,0.1-1.6,0.1c-0.1,0-0.3,0-0.4,0
	c-0.2,0-0.4,0-0.6,0c-0.7,0-1.3,0.1-2,0.1c-0.8,0-1.7,0.1-2.5,0.1c-0.8,0-1.6,0.1-2.4,0.1c-1,0-1.9,0.1-2.9,0.1
	c-0.8,0-1.7,0-2.5,0.1c-4.8,0.1-10,0.2-15.6,0.1H342c-0.6,0-1.3,0-1.9,0c-1.2,0-2.4,0-3.6,0c-0.5,0-1,0-1.5,0
	c-1.7,0-3.5-0.1-5.2-0.1c-0.9,0-1.9,0-2.9-0.1c-1.8-0.1-3.6-0.1-5.4-0.2c-0.9,0-1.9-0.1-2.8-0.1c-0.8,0-1.7-0.1-2.5-0.1
	c-0.1,0-0.2,0-0.3,0c-0.6,0-1.3,0-1.9-0.1c-1.3,0-2.6-0.1-3.9-0.2c-2-0.1-4-0.2-6.1-0.3c-1.2-0.1-2.5-0.1-3.7-0.2
	c-2.5-0.1-5.1-0.3-7.7-0.4c-0.3,0-0.6,0-0.9,0c-1.7-0.1-3.4-0.2-5.1-0.3c-1.2-0.1-2.4-0.1-3.7-0.2c-1.1-0.1-2.2-0.1-3.3-0.2
	c-1.1-0.1-2.3-0.1-3.4-0.2c-1.6-0.1-3.2-0.2-4.8-0.3c-1.9-0.1-3.8-0.3-5.7-0.4c-2.8-0.2-5.7-0.4-8.7-0.7c-1.3-0.1-2.6-0.2-4-0.3
	c-1.3-0.1-2.7-0.2-4-0.3c-4.4-0.4-8.9-0.7-13.6-1.1c-3.4,44.2-5.2,75.7-6.2,98.1c-1.8,41.8-0.6,51.4-0.6,51.4
	c-12.5,7.4-19,25.9-19.3,38.2c-10.3-3.3-69-22.1-71.6-23c-2.9-1-7.8-2.1-7.8-13.1v-28.8c0-6,8.4-1.8,12.5-0.5
	c4.2,1.3,44.2,14.4,47.6,15.7c3.4,1.3,3.7-8.1,3.7-14.6c0-11.2,0.8-33.3,1.8-57.2v0c0.1-3,0.3-6,0.4-9.1v0c0.1-3.2,0.3-6.4,0.4-9.6
	c0-1.1,0.1-2.1,0.1-3.2c0.1-2.8,0.3-5.7,0.4-8.5c0.1-2.3,0.2-4.6,0.3-6.8c0-0.7,0.1-1.4,0.1-2.1c0.1-1.7,0.2-3.5,0.3-5.2
	c0-0.1,0-0.1,0-0.2c0.1-1.2,0.1-2.4,0.2-3.5c0-0.3,0-0.7,0.1-1c0-0.7,0.1-1.3,0.1-2c0.1-1.3,0.1-2.5,0.2-3.8
	c0.1-1.7,0.2-3.3,0.2-4.9c0-0.1,0-0.2,0-0.3c0-0.7,0.1-1.4,0.1-2.1c0,0,0,0,0,0c0-0.7,0.1-1.4,0.1-2c0.1-2.1,0.2-4.1,0.3-6
	c0-0.3,0-0.7,0-1c0,0,0,0,0,0c0-0.3,0-0.6,0-1v0c0-0.7,0.1-1.3,0.1-2c0.1-2.1,0.2-4.1,0.3-5.9c0-0.4,0-0.7,0-1.1
	c0-0.7,0.1-1.4,0.1-2.1c0-0.6,0.1-1.2,0.1-1.7c0.1-1.8,0.2-3.3,0.2-4.4c0-0.2,0-0.3,0-0.5c0-0.2,0-0.4,0-0.5c0-0.1,0-0.3,0-0.4
	c0-0.2,0-0.4,0-0.6c0-0.1,0-0.1,0-0.2c0-0.4,0-0.7,0-0.7s-0.4-0.3-1-0.9c-0.3-0.3-0.8-0.7-1.3-1.2c-0.4-0.3-0.8-0.7-1.3-1.1
	c-0.4-0.3-0.8-0.7-1.2-1.1c-0.7-0.7-1.5-1.4-2.3-2.1c-0.5-0.5-1.1-1-1.7-1.6c-0.3-0.3-0.6-0.5-0.9-0.8c-0.3-0.3-0.6-0.6-0.9-0.9
	c-2-1.8-4.1-3.8-6.4-5.8c-0.7-0.7-1.5-1.3-2.2-2c-0.4-0.4-0.8-0.7-1.2-1.1c-1.2-1.1-2.4-2.2-3.6-3.3c-3-2.8-6.2-5.7-9.3-8.6
	c-0.6-0.6-1.3-1.2-1.9-1.7c0-28.2,6.5-78,72.5-98.1c1.6-0.3,3.3-0.7,5-1c14-2.9,29.9-5.3,47.7-7.1c22.7-2.3,42.3-2.2,58.7-0.1
	c1.2,0.1,2.3,0.3,3.4,0.5c25,7.1,35.2,42.6,42.3,113.3c14.8-3.5,22.7-8.6,22.6-15.4c0.1,0.1,0.2,0.3,0.3,0.5c0.4,4.9,0.7,9.8,1,14.7
	c0.1,1.3,0.1,2.6,0.2,4c-5.8,8.7-22.4,17.4-61.1,21.4c-0.9,0.1-1.9,0.2-2.8,0.3c0-2.3,0.1-4.6,0.2-6.9c0.2-4.7,0.5-9.3,1-13.6
	c-9,0.6-18.9,0.9-29.7,1.1c-6.3,8.4-2.4,45.8,0.5,46c1.2,0.1,2.3,0.2,3.5,0.3c1.4,0.1,2.8,0.2,4.2,0.3c1.3,0.1,2.5,0.2,3.8,0.2
	c1,0.1,2,0.1,3,0.2c0.7,0,1.3,0.1,2,0.1c2.9,0.1,5.7,0.2,8.5,0.3h0.2c0.7,0,1.4,0,2,0s1.4,0,2,0c0,0,0-0.1,0-0.1
	c-0.3-2.1-0.6-4.5-0.8-7.1c0-0.6-0.1-1.2-0.1-1.9c-0.1-2.1-0.3-4.3-0.3-6.6c0-0.7,0-1.4-0.1-2.1c0-0.7,0-1.4,0-2.1
	c0.8,0,1.7,0,2.5-0.1C387.3,365.6,407.4,362.4,418.5,356.9z"/>
<path id="XMLID_29_" class="st0" d="M453.5,593.8c3.9-2.8,4.2-12.4,2.7-23c0.9,1,1.9,1.5,2.9,1.4c0.1,0,0.2,0,0.3-0.1h0c0,0,0,0,0,0
	c0.1,0,0.2,0,0.3-0.1c0.4-0.2,0.8-0.5,1.2-0.8c0.1-0.1,0.2-0.3,0.3-0.4c0.1-0.1,0.1-0.2,0.2-0.3c0.1-0.1,0.2-0.3,0.3-0.5
	c0.2-0.4,0.4-0.9,0.5-1.4c0.1-0.2,0.1-0.4,0.2-0.7c0-0.2,0.1-0.5,0.1-0.7c0-0.2,0-0.4,0.1-0.6c0-0.2,0-0.4,0-0.6c0-0.2,0-0.4,0-0.7
	c0-0.7,0-1.4-0.2-2.1c-0.6-4.6-3.1-8.1-5.6-7.8c-1.4,0.2-2.5,1.6-3,3.6c-3.4-13-8.8-24.6-13.4-24.7c12.2-8.6,28.7-31.4-70.5-51.9
	c93.3,12.5,95.7,52.8,102.5,70C479.1,569.8,467.9,586.8,453.5,593.8z"/>
<path id="XMLID_41_" class="st3" d="M456.8,555.4c-1.4,0.2-2.5,1.6-3,3.6c-3.4-13-8.8-24.6-13.4-24.7c-0.5,0.3-0.9,0.6-1.4,0.9
	c-1,0.6-1.9,1.2-2.7,1.6c-27.9,14.7-66.8,23.3-108.6,21.6c-0.7,0-1.4-0.1-2.1-0.1c-9.4,6.8-13.6,56.8-2.4,63.4
	c0.9,0,1.8,0.1,2.7,0.1c41.3,1,87.1-8.1,127.7-28c3.9-2.8,4.2-12.4,2.7-23c0.9,1,1.9,1.5,2.9,1.4c0.1,0,0.2,0,0.3-0.1h0
	C462.1,571,460.6,555.4,456.8,555.4z M407.5,592.8c6.9,0,4.7-15.1,0.2-15.7c4.2,0.1,7.6,3.6,7.6,7.8
	C415.3,589.3,411.8,592.8,407.5,592.8z M442.2,585.7c7.9-4.3,0.7-22.9-3.4-23.7c5.6,0.3,10,5.7,10,12.3
	C448.8,579.4,446.1,583.9,442.2,585.7z"/>
<path id="XMLID_30_" class="st1" d="M237.4,537.3c-10,10-15.3,32.6-15.5,49c-4.4-4.4-8.1-9.3-11-14.5c0,0-0.4-0.1-1.1-0.4
	c-0.1,0-0.3-0.1-0.4-0.1c0.3-12.3,6.9-30.8,19.3-38.2C231.6,534.6,234.5,536,237.4,537.3z"/>
<path id="XMLID_37_" class="st2" d="M323.2,621.7c-39.6-1.3-74.8-12-96.7-31.1c-1.6-1.3-3.1-2.8-4.5-4.2c0.1-16.4,5.5-39,15.5-49
	c2,0.9,4,1.8,6,2.6c27.1,11.3,55.1,17,82.1,18.4C316.2,565.1,312,615.1,323.2,621.7z"/>
<path id="XMLID_27_" class="st4" d="M209.8,571.5l-0.4,0.9c0-0.3,0-0.7,0-1C209.5,571.4,209.7,571.5,209.8,571.5z"/>
<path id="XMLID_50_" class="st5" d="M418.5,356.9c0.1-0.1,0.3-0.1,0.4-0.2c-0.1,3.5-0.3,7-0.4,10.3c-0.2,0.5-0.4,1-0.7,1.4
	c-6.9,13.1-30,18.1-61.9,17.8h-0.2c-0.8-5.2-1.2-12.2-1.3-19.8c0.8,0,1.7,0,2.5-0.1C387.3,365.6,407.4,362.4,418.5,356.9z"/>
<path id="XMLID_38_" class="st5" d="M419.2,334.8c-0.3,0.5-0.6,1-0.9,1.6c-5.8,8.7-22.4,17.4-61.1,21.4c-0.9,0.1-1.9,0.2-2.8,0.3
	c0-2.3,0.1-4.6,0.2-6.9c0.2-4.7,0.5-9.3,1-13.6c0.8-0.1,1.7-0.1,2.5-0.2c14-1,25.7-2.5,34.9-4.6c0.4-0.1,0.8-0.2,1.2-0.3
	c14.8-3.5,22.7-8.6,22.6-15.4c0.1,0.1,0.2,0.3,0.3,0.5c1.3,2.7,1.9,8.2,2,14.9C419.2,333.4,419.2,334.1,419.2,334.8z"/>
<path id="XMLID_55_" class="st6" d="M136.4,299.2l-4.1,135.8l-0.2,0.3l4.1-136.2C136.2,299,136.3,299.1,136.4,299.2z"/>
<path id="XMLID_42_" class="st6" d="M195.5,449.8c-1,23.9-1.8,46.1-1.8,57.2c0,6.5-0.3,15.9-3.7,14.6c-3.4-1.3-43.4-14.4-47.6-15.7
	c-4.2-1.3-12.5-5.5-12.5,0.5l0.9-31l27.9-31.3c13.3,4.3,31.2,10.3,33.5,11.1C194.2,456.1,195.1,453.5,195.5,449.8z"/>
<path id="XMLID_35_" class="st7" d="M200,357.5c0,0,0,0.2,0,0.7c0,0.1,0,0.1,0,0.2c0,0.2,0,0.4,0,0.6c0,0.1,0,0.3,0,0.4
	c0,0.2,0,0.3,0,0.5c0,0.1,0,0.3,0,0.5c-0.1,1.1-0.1,2.6-0.2,4.4c0,0.5-0.1,1.1-0.1,1.7c0,0.7-0.1,1.4-0.1,2.1c0,0.3,0,0.7,0,1.1
	c-0.1,1.8-0.2,3.8-0.3,5.9c-0.1,1.3-0.1,2.6-0.2,4c-0.1,1.9-0.2,3.9-0.3,6c-0.1,1.3-0.1,2.7-0.2,4.1c0,0.1,0,0.2,0,0.3
	c-0.1,1.6-0.2,3.2-0.2,4.9c-0.1,1.2-0.1,2.5-0.2,3.8c0,0.7-0.1,1.3-0.1,2l-39,43.6c-7-2.3-12.7-4.1-14.1-4.6
	c-4.2-1.3-12.5-5.5-12.5,0.5l0.2-5.3l65.3-79.5c0.5,0.5,1,0.9,1.3,1.2C199.6,357.2,200,357.5,200,357.5z"/>
<path id="XMLID_43_" class="st8" d="M197.6,355.4l-65.3,79.5l4.1-135.8c1.4,1.3,6.5,6,13.1,12.1c0.7,0.6,1.3,1.2,2,1.8
	c4,3.7,8.6,7.8,13.2,12.1c0.6,0.6,1.3,1.2,1.9,1.7c3.1,2.9,6.3,5.8,9.3,8.6c1.2,1.1,2.4,2.2,3.6,3.3c0.4,0.4,0.8,0.8,1.2,1.1
	c0.7,0.7,1.5,1.4,2.2,2c2.3,2.1,4.4,4,6.4,5.8c0.3,0.3,0.6,0.6,0.9,0.9c0.3,0.3,0.6,0.6,0.9,0.8c0.6,0.5,1.2,1.1,1.7,1.6
	c0.8,0.8,1.6,1.5,2.3,2.1c0.4,0.4,0.8,0.7,1.2,1.1C196.8,354.7,197.2,355.1,197.6,355.4z"/>
<path id="XMLID_64_" class="st8" d="M158.8,444.2l39-43.6c0,0.3,0,0.7-0.1,1c0,1.2-0.1,2.3-0.2,3.5c0,0.1,0,0.1,0,0.2
	c-0.1,1.7-0.2,3.4-0.3,5.2c0,0.7-0.1,1.4-0.1,2.1c-0.1,2.3-0.2,4.5-0.3,6.8c-0.1,2.8-0.3,5.7-0.4,8.5c0,1.1-0.1,2.1-0.1,3.2
	c-0.1,3.2-0.3,6.4-0.4,9.6v0c-0.1,3-0.3,6.1-0.4,9.1v0c-0.4,3.6-1.4,6.2-3.3,5.5C190,454.5,172.1,448.6,158.8,444.2z"/>
<path id="XMLID_65_" class="st8" d="M198.1,394.8c0.1-1.7,0.2-3.3,0.2-4.9C198.2,391.5,198.2,393.2,198.1,394.8z"/>
<path id="XMLID_66_" class="st8" d="M198.3,389.6c0.1-1.4,0.1-2.8,0.2-4.1C198.5,386.9,198.4,388.2,198.3,389.6z"/>
<path id="XMLID_67_" class="st8" d="M198.8,379.6c0.1-1.4,0.1-2.7,0.2-4C199,376.9,198.9,378.2,198.8,379.6z"/>
<path id="XMLID_20_" class="st9" d="M407.5,592.8c-4.3,0-7.9-3.5-7.9-7.8c0-4.3,3.5-7.8,7.9-7.8c0.1,0,0.2,0,0.2,0
	C412.2,577.6,414.4,592.8,407.5,592.8z"/>
<path id="XMLID_33_" class="st9" d="M459.4,572.1L459.4,572.1c-0.1,0-0.2,0.1-0.3,0.1c-1,0.1-2-0.4-2.9-1.4
	c-1.3-1.4-2.3-3.7-2.7-6.4c-0.3-2-0.2-3.9,0.3-5.4c0.6-2,1.6-3.4,3-3.6C460.6,555.4,462.1,571.1,459.4,572.1z"/>
<path id="XMLID_13_" class="st10" d="M448.8,574.2c0,5.2-2.8,9.6-6.6,11.4c7.9-4.3,0.7-22.9-3.4-23.7
	C444.4,562.2,448.8,567.6,448.8,574.2z"/>
<path id="XMLID_21_" class="st9" d="M442.2,585.7C442.2,585.7,442.2,585.7,442.2,585.7c-1.2,0.6-2.5,0.9-3.8,0.9
	c-5.8,0-10.4-5.5-10.4-12.3c0-6.8,4.7-12.3,10.4-12.3c0.1,0,0.3,0,0.4,0c0,0,0,0,0,0C442.9,562.8,450,581.4,442.2,585.7z"/>
<path id="XMLID_58_" class="st0" d="M374.8,396.8c-3.1,0.9-6.4,1.5-9.8,1.8c-0.7,0-1.5,0.1-2.2,0.1h-0.1c-0.4,0-0.7,0-1.1,0.1
	c0,0-0.1,0-0.1,0v6.2c0,0.5-1.4,0.7-3.2,0.7c-2.6,0.1-6.1-0.3-7.5-1l-121.6,77c-1.8,41.8-0.6,51.4-0.6,51.4l135.8-48.8l5.3-1.9
	c-0.1-1-0.2-2-0.2-3.2C368.5,459.3,371.6,417.3,374.8,396.8z"/>
<path id="XMLID_24_" class="st0" d="M380.4,484.8c-3.3-0.8-6.8-1.5-10.5-2.3l-5.3,1.9l-135.8,48.8c2.9,1.4,5.8,2.8,8.7,4.1
	c2,0.9,4,1.8,6,2.6c16.7,7,33.8,11.8,50.7,14.8c10.5,1.9,21,3,31.4,3.6c0.7,0,1.4,0.1,2.1,0.1c7.6,0.3,15.1,0.3,22.5,0
	c33.1-1.5,63.2-9.5,86.1-21.5c0.8-0.4,1.7-1,2.7-1.6c0.4-0.3,0.9-0.6,1.4-0.9C452.1,526.1,467.8,504.6,380.4,484.8z M409,540.7
	c-17.4,7.5-37,11.1-56.5,12.1c-18.3,0.9-36.5-0.6-52.8-3.5c-22.4-4-41.1-10.7-51.6-17.6c8.3-3,61.9-21.3,105.3-36.1
	c5.5-1.9,10.7-3.7,15.8-5.4c3,0,6,0.1,8.8,0.3C428.5,493.5,462.2,517.9,409,540.7z"/>
<path id="XMLID_54_" class="st10" d="M378,490.4l-25.5,62.3c-18.3,0.9-36.5-0.6-52.8-3.5l53.7-53.7c5.5-1.9,10.7-3.7,15.8-5.4
	C372.2,490.1,375.2,490.3,378,490.4z"/>
<path id="XMLID_56_" class="st9" d="M353.4,495.5l-53.7,53.7c-22.4-4-41.1-10.7-51.6-17.6C256.5,528.6,310.1,510.3,353.4,495.5z"/>
<path id="XMLID_57_" class="st9" d="M409,540.7c-17.4,7.5-37,11.1-56.5,12.1l25.5-62.3C428.5,493.5,462.2,517.9,409,540.7z"/>
<path id="XMLID_16_" class="st10" d="M415.3,585c0,4.3-3.5,7.8-7.8,7.8c6.9,0,4.7-15.1,0.2-15.7C412,577.2,415.3,580.7,415.3,585z"
	/>
<path id="XMLID_14_" class="st9" d="M407.5,592.8v-15.7c0.1,0,0.2,0,0.2,0C412.2,577.6,414.4,592.8,407.5,592.8z"/>
<path id="XMLID_23_" class="st9" d="M442.2,585.7C442.2,585.7,442.2,585.7,442.2,585.7c-1,0.6-2.3,0.9-3.8,0.9V562
	c0.1,0,0.3,0,0.4,0c0,0,0,0,0,0C442.9,562.8,450,581.4,442.2,585.7z"/>
<path id="XMLID_11_" class="st10" d="M462.6,565.3c0,0.2,0,0.5,0,0.7c0,0.2,0,0.4,0,0.6c0,0.2,0,0.4-0.1,0.6c0,0.3-0.1,0.5-0.1,0.7
	c0,0.2-0.1,0.5-0.2,0.7c-0.1,0.5-0.3,1-0.5,1.4c-0.1,0.2-0.2,0.3-0.3,0.5c-0.1,0.1-0.1,0.2-0.2,0.3c-0.1,0.1-0.2,0.3-0.3,0.4
	c-0.3,0.4-0.7,0.7-1.2,0.8c-0.1,0-0.2,0.1-0.3,0.1c0,0,0,0,0,0c2.7-1,1.2-16.7-2.6-16.7c2.5-0.3,5,3.1,5.6,7.8
	C462.5,563.9,462.6,564.6,462.6,565.3z"/>
<path id="XMLID_12_" class="st9" d="M459.4,572.1L459.4,572.1c-0.1,0-0.2,0.1-0.3,0.1l-2.3-16.7
	C460.6,555.4,462.1,571.1,459.4,572.1z"/>
<path id="XMLID_8_" class="st3" d="M348.8,366.5c-7.3,0.1-15.1,0-23.4-0.2v-6.5c7.7,0.3,15.6,0.4,23.3,0.3
	C348.6,362.2,348.7,364.5,348.8,366.5z"/>
<path id="XMLID_9_" class="st0" d="M418.9,356.7c-0.1,0.1-0.3,0.1-0.4,0.2c-11.1,5.5-31.1,8.8-61.6,9.5c-0.8,0-1.6,0-2.5,0.1
	c-1.6,0-3.3,0.1-5,0.1c-0.2,0-0.3,0-0.5,0c-0.2-2-0.2-4.3-0.1-6.4c0.3,0,0.7,0,1,0c1.6,0,3.1,0,4.7-0.1c0.9,0,1.8,0,2.8-0.1
	c25.7-0.8,49.1-3.6,61.4-8.3c0.2-0.1,0.3-0.1,0.5-0.2c10.6-4.2,12.7-9.8,0.3-16.9c0,0.1-0.1,0.2-0.1,0.2c0-0.7,0-1.4,0-2.1
	c4.1,1.3,9.4,6.2,9.7,9.9C429.3,348.2,426.1,353,418.9,356.7z"/>
<path id="XMLID_31_" class="st9" d="M419,351.5c-0.2,0.1-0.3,0.1-0.5,0.2c-12.4,4.7-35.8,7.5-61.4,8.3c-0.9,0-1.8,0-2.8,0.1
	c-1.5,0-3.1,0.1-4.7,0.1c-0.3,0-0.7,0-1,0c-7.7,0.1-15.5,0-23.3-0.3c8.5-0.3,16.3-0.7,23.4-1.3c0.3,0,0.6,0,1-0.1
	c1.6-0.1,3.1-0.3,4.6-0.4c0.9-0.1,1.9-0.2,2.8-0.3c38.8-4,55.3-12.7,61.1-21.4c0.3-0.5,0.7-1,0.9-1.6c0-0.1,0.1-0.2,0.1-0.2
	C431.8,341.6,429.7,347.3,419,351.5z"/>
<path id="XMLID_25_" class="st0" d="M355.7,386.2c-9.1-0.1-18.9-0.6-29.2-1.5c-2.9-0.2-6.8-37.6-0.5-46c10.8-0.1,20.7-0.5,29.7-1.1
	c-0.5,4.2-0.8,8.8-1,13.6c-0.1,2.3-0.2,4.6-0.2,6.9c-1.5,0.1-3,0.3-4.6,0.4c-0.3,0-0.6,0-1,0.1c-7.1,0.6-14.9,1-23.4,1.3v6.5
	c8.3,0.2,16.1,0.3,23.4,0.2c0.2,0,0.3,0,0.5,0c1.7,0,3.4,0,5-0.1C354.5,374,354.9,381,355.7,386.2z"/>
<path id="XMLID_28_" class="st5" d="M419.2,334.8c-0.3,0.5-0.6,1-0.9,1.6c-5.8,8.7-22.4,17.4-61.1,21.4c-0.9,0.1-1.9,0.2-2.8,0.3
	c0-2.3,0.1-4.6,0.2-6.9l3-0.9l60.6-17.9c0.3,0,0.7,0.1,1.1,0.3C419.2,333.4,419.2,334.1,419.2,334.8z"/>
<line id="XMLID_6_" class="st11" x1="236.9" y1="356.8" x2="197.8" y2="400.6"/>
<line id="XMLID_19_" class="st11" x1="130.9" y1="475.5" x2="88.5" y2="522.9"/>
<path id="XMLID_22_" class="st12" d="M158.8,444.2l-27.9,31.3l1.2-40.3l0.2-0.3l-0.2,5.3c0-6,8.4-1.8,12.5-0.5
	C146.1,440.1,151.8,442,158.8,444.2z"/>
<line id="XMLID_5_" class="st11" x1="220.9" y1="327.1" x2="197.6" y2="355.4"/>
<line id="XMLID_7_" class="st11" x1="132.1" y1="435.2" x2="98.9" y2="475.6"/>
<path id="XMLID_77_" class="st2" d="M392.4,385.6c0,0.4-0.2,0.8-0.5,1.2v0c-4.5,0.7-9.6,1.4-15.6,1.8c-0.6,0-1.2,0.1-1.9,0.1
	c-0.4,0-0.9,0.1-1.3,0.1c-0.5,0-1,0.1-1.6,0.1c-0.1,0-0.3,0-0.4,0c-0.2,0-0.4,0-0.6,0c-0.7,0-1.3,0.1-2,0.1c-0.8,0-1.7,0.1-2.5,0.1
	c-0.8,0-1.6,0.1-2.4,0.1c-1,0-1.9,0.1-2.9,0.1c-0.8,0-1.7,0-2.5,0.1c-4.8,0.1-10,0.2-15.6,0.1H342c-0.6,0-1.3,0-1.9,0
	c-1.2,0-2.4,0-3.6,0c-0.5,0-1,0-1.5,0c-1.7,0-3.5-0.1-5.2-0.1c-0.9,0-1.9,0-2.9-0.1c-1.8-0.1-3.6-0.1-5.4-0.2
	c-0.9,0-1.9-0.1-2.8-0.1c-0.8,0-1.7-0.1-2.5-0.1c-0.1,0-0.2,0-0.3,0c-0.6,0-1.3,0-1.9-0.1c-1.3,0-2.6-0.1-3.9-0.2
	c-2-0.1-4-0.2-6.1-0.3c-1.2-0.1-2.5-0.1-3.7-0.2c-2.5-0.1-5.1-0.3-7.7-0.4c-0.4-0.3-0.7-0.6-1.1-0.9l21.7-0.3l1.3,0l37-0.5h0.2l4,0
	l15.9-0.2h0.1l1.8,0h0.5L392.4,385.6z"/>
<path id="XMLID_53_" class="st10" d="M336.9,399.3v13.5c0,0.6-1.9,0.9-4.3,0.9c1.5-1.8,1.6-12.6,1-14.5
	C334.7,399.3,335.8,399.3,336.9,399.3z"/>
<path id="XMLID_60_" class="st9" d="M332.6,413.7c-0.1,0-0.3,0-0.4,0c-3.9,0-8.8-0.5-8.8-1.1v-14.1c3.1,0.3,6.4,0.5,10,0.7
	c0.1,0,0.1,0,0.2,0C334.2,401.1,334.2,412,332.6,413.7z"/>
<path id="XMLID_59_" class="st2" d="M322.1,398.4c-14.6-1.7-23.3-5.3-29.6-10.5c2.6,0.2,5.2,0.3,7.7,0.4c1.3,0.1,2.5,0.1,3.7,0.2
	c2.1,0.1,4.1,0.2,6.1,0.3c1.3,0.1,2.6,0.1,3.9,0.2C315.5,392.8,318.2,397.5,322.1,398.4z"/>
<path id="XMLID_51_" class="st10" d="M361.5,398.8v6.2c0,0.5-1.4,0.7-3.2,0.7c0.2-1.8,0.3-4,0.3-5.9l1.5-0.9
	C360.7,398.8,361.1,398.8,361.5,398.8z"/>
<path id="XMLID_78_" class="st9" d="M360.2,398.8l-1.5,0.9c0,2-0.1,4.1-0.3,5.9c-2.6,0.1-6.1-0.3-7.5-1c-0.4-0.2-0.6-0.4-0.6-0.6
	v-4.9c0.8,0,1.6,0,2.4-0.1c0.8,0,1.6,0,2.5-0.1c1.2,0,2.4-0.1,3.6-0.1c0.1,0,0.1,0,0.2,0c0.1,0,0.2,0,0.3,0
	C359.5,398.9,359.9,398.9,360.2,398.8z"/>
<polyline id="XMLID_52_" class="st11" points="370,479 369.6,479.3 364.5,484.4 353.4,495.5 "/>
<polyline id="XMLID_34_" class="st11" points="299.7,549.2 294.2,554.8 294.2,554.8 "/>
<polyline id="XMLID_40_" class="st11" points="382.1,480.4 380.6,484.1 380.4,484.8 378,490.4 "/>
<polyline id="XMLID_32_" class="st11" points="352.5,552.8 350.2,558.4 349.8,559.3 "/>
<path id="XMLID_2_" class="st10" d="M235.5,383.7"/>
<path id="XMLID_75_" class="st3" d="M350.9,404.8l-121.6,77c1-22.4,2.8-53.9,6.2-98.1c4.6,0.4,9.1,0.8,13.6,1.1
	c1.4,0.1,2.7,0.2,4,0.3c1.3,0.1,2.7,0.2,4,0.3c2.9,0.2,5.8,0.5,8.7,0.7c1.9,0.1,3.8,0.3,5.7,0.4c1.6,0.1,3.2,0.2,4.8,0.3
	c1.1,0.1,2.3,0.1,3.4,0.2c1.1,0.1,2.2,0.1,3.3,0.2c1.2,0.1,2.5,0.2,3.7,0.2c1.7,0.1,3.4,0.2,5.1,0.3c0.3,0,0.6,0,0.9,0
	c6.2,5.2,15,8.8,29.6,10.5c0.4,0,0.8,0.1,1.3,0.1v14.1c0,0.6,4.9,1.2,8.8,1.1c0.1,0,0.3,0,0.4,0c2.4,0,4.3-0.3,4.3-0.9v-13.5
	c4.1,0.1,8.5,0.1,13.4-0.1v4.9C350.3,404.4,350.5,404.6,350.9,404.8z"/>
<line id="XMLID_44_" class="st11" x1="229.3" y1="481.8" x2="215.3" y2="490.6"/>
<line id="XMLID_17_" class="st11" x1="358.7" y1="399.8" x2="350.9" y2="404.8"/>
<path id="XMLID_39_" class="st4" d="M323.4,398.5c-0.4,0-0.9,0-1.3-0.1C322.5,398.4,323,398.5,323.4,398.5z"/>
<path id="XMLID_70_" class="st9" d="M391.9,386.8c-1.9,3-8.7,7.5-17.1,10c-3.1,0.9-6.4,1.5-9.8,1.8c-0.7,0-1.5,0.1-2.2,0.1
	c4.7-0.5,7.6-4.1,9.3-7.4c0.4-0.9,0.8-1.7,1.1-2.5c0.5,0,0.9-0.1,1.3-0.1c0.6-0.1,1.3-0.1,1.9-0.1
	C382.3,388.1,387.5,387.5,391.9,386.8z"/>
<path id="XMLID_63_" class="st0" d="M373.2,388.8c-0.3,0.8-0.6,1.6-1.1,2.5c-1.7,3.3-4.5,6.8-9.3,7.4h-0.1c-0.4,0-0.7,0-1.1,0.1
	c0,0-0.1,0-0.1,0c-0.5,0-0.9,0-1.3,0.1c-0.3,0-0.7,0-1,0c-0.1,0-0.2,0-0.3,0c-0.1,0-0.1,0-0.2,0c-1.2,0.1-2.4,0.1-3.6,0.1
	c-0.8,0-1.6,0.1-2.5,0.1c-0.8,0-1.6,0-2.4,0.1c-4.8,0.1-9.3,0.2-13.4,0.1c-1.1,0-2.2-0.1-3.3-0.1c-0.1,0-0.1,0-0.2,0
	c-3.6-0.1-6.9-0.4-10-0.7c-0.4,0-0.8-0.1-1.3-0.1c-3.9-0.9-6.6-5.6-8.2-9.4c0.7,0,1.3,0.1,1.9,0.1c0.1,0,0.2,0,0.3,0
	c0.8,0,1.7,0.1,2.5,0.1c0.9,0,1.9,0.1,2.8,0.1c1.9,0.1,3.7,0.1,5.4,0.2c1,0,1.9,0,2.9,0.1c1.8,0,3.5,0.1,5.2,0.1c0.5,0,1,0,1.5,0
	c1.2,0,2.4,0,3.6,0c0.6,0,1.3,0,1.9,0h0.6c5.6,0,10.8,0,15.6-0.1c0.9,0,1.7-0.1,2.5-0.1c1,0,2-0.1,2.9-0.1c0.8,0,1.6-0.1,2.4-0.1
	c0.9,0,1.7-0.1,2.5-0.1c0.7,0,1.3-0.1,2-0.1c0.2,0,0.4,0,0.6,0c0.1,0,0.3,0,0.4,0C372.1,388.9,372.6,388.9,373.2,388.8z"/>
<g id="XMLID_3_">
</g>
<g id="XMLID_4_">
</g>
<g id="XMLID_10_">
</g>
<g id="XMLID_15_">
</g>
<g id="XMLID_18_">
</g>
<g id="XMLID_36_">
</g>
</svg>
