<?xml version="1.0" encoding="utf-8"?>
<!-- Generator: Adobe Illustrator 19.0.0, SVG Export Plug-In . SVG Version: 6.00 Build 0)  -->
<svg version="1.1" id="Calque_3" xmlns="http://www.w3.org/2000/svg" xmlns:xlink="http://www.w3.org/1999/xlink" x="0px" y="0px"
	 viewBox="0 0 595.3 841.9" style="enable-background:new 0 0 595.3 841.9;" xml:space="preserve">
<style type="text/css">
	.st0{fill:#EDEDED;}
	.st1{fill:#C6C6C6;}
	.st2{fill:#FFFFFF;}
	.st3{fill:#DADADA;}
	.st4{fill:#F6F6F6;}
	.st5{fill:#3B1C0D;}
	.st6{fill:#8B543E;}
	.st7{fill:#878787;}
</style>
<path id="XMLID_37_" class="st0" d="M389.3,399.8C389.3,399.8,389.3,399.8,389.3,399.8l0,0.1C389.3,399.9,389.3,399.9,389.3,399.8z
	 M463.6,414.1c-6-2-12.5-3.5-19-4.7c-8-1.4-14.1,16.9-15.2,32.6c-0.5,8,0.2,15.4,2.8,19c3.4,4.9,41.7,12.5,53.8-12
	c0.5-1.1,1-2.1,1.4-3.1C493.4,429.3,480.7,419.7,463.6,414.1z M532.4,460.2c-3.1-6.4-7.5-12.7-13.2-19c-0.5,5.7-1.8,12.1-4.1,19
	c-11.2,33.5-72,27.8-92.5,23.7c-7.7-1.6-20.4,13.8-38.7,30.2c-0.3,0.3-0.6,0.5-0.8,0.8l3.5-0.4c-55.2,64.1-143.6,38.8-167.6,23.2
	c-1-0.4-2-0.9-2.9-1.3c-2.4-1.1-4.7-2.3-7-3.6c-0.9-0.5-1.8-1-2.8-1.6c-0.3-0.2-0.7-0.4-1.1-0.6c-0.7-0.4-1.4-0.8-2.1-1.3
	c-0.5-0.3-0.9-0.6-1.4-0.9c-0.8-0.5-1.5-1-2.2-1.5c-0.5-0.3-0.9-0.6-1.3-0.9c-0.4-0.3-0.9-0.6-1.3-0.9c-3-2.1-5.9-4.3-8.7-6.7
	c-0.4-0.4-0.9-0.8-1.3-1.1c-1-0.9-2-1.7-3-2.6c-0.4-0.4-0.9-0.8-1.3-1.2c-1.8-1.7-3.7-3.5-5.5-5.3c-0.7-0.7-1.3-1.4-2-2.1
	c-4.1-4.4-8.2-9.2-12.1-14.4c-0.3-0.4-0.6-0.8-1-1.3c-1.8-2.4-3.7-5-5.5-7.6c-0.4-0.6-0.8-1.2-1.2-1.8c-6.4-9.5-12.6-20.3-18.6-32.4
	c-5.2-10.3-9.7-22.2-13-34.7C70.7,436.1,39.4,472,54,527.8c0.2,0.9,0.5,1.8,0.8,2.6c30.4,98.1,307.7,122.3,420.1,46.1
	C520.5,545.6,553.3,502.7,532.4,460.2z"/>
<path id="XMLID_15_" class="st1" d="M463.6,414.1c-6-2-12.5-3.5-19-4.7c-8-1.4-14.1,16.9-15.2,32.6l-0.4,0.3
	C431.2,418.2,431,395.5,463.6,414.1z"/>
<path id="XMLID_24_" class="st2" d="M487.2,445.8c-4.4,32.4-51.6,23.9-55.1,15.2c3.4,4.9,41.7,12.5,53.8-12
	C486.4,447.9,486.8,446.9,487.2,445.8z"/>
<path id="XMLID_33_" class="st3" d="M389.3,399.8C389.3,399.8,389.3,399.8,389.3,399.8l0,0.1C389.3,399.9,389.3,399.9,389.3,399.8z
	 M463.6,414.1c-6-2-12.5-3.5-19-4.7c-8-1.4-14.1,16.9-15.2,32.6c-0.5,8,0.2,15.4,2.8,19c3.4,4.9,41.7,12.5,53.8-12
	c0.5-1.1,1-2.1,1.4-3.1C493.4,429.3,480.7,419.7,463.6,414.1z M532.4,460.2c-3.1-6.4-7.5-12.7-13.2-19c-0.5,5.7-1.8,12.1-4.1,19
	c-11.2,33.5-72,27.8-92.5,23.7c-7.7-1.6-20.4,13.8-38.7,30.2c-0.3,0.3-0.6,0.5-0.8,0.8l3.5-0.4c-55.2,64.1-143.6,38.8-167.6,23.2
	c-1-0.4-2-0.9-2.9-1.3c-2.4-1.1-4.7-2.3-7-3.6c-0.9-0.5-1.8-1-2.8-1.6c-0.3-0.2-0.7-0.4-1.1-0.6c-0.7-0.4-1.4-0.8-2.1-1.3
	c-0.5-0.3-0.9-0.6-1.4-0.9c-0.8-0.5-1.5-1-2.2-1.5c-0.5-0.3-0.9-0.6-1.3-0.9c-0.4-0.3-0.9-0.6-1.3-0.9c-3-2.1-5.9-4.3-8.7-6.7
	c-0.4-0.4-0.9-0.8-1.3-1.1c-1-0.9-2-1.7-3-2.6c-0.4-0.4-0.9-0.8-1.3-1.2c-1.8-1.7-3.7-3.5-5.5-5.3c-0.7-0.7-1.3-1.4-2-2.1
	c-4.1-4.4-8.2-9.2-12.1-14.4c-0.3-0.4-0.6-0.8-1-1.3c-1.8-2.4-3.7-5-5.5-7.6c-0.4-0.6-0.8-1.2-1.2-1.8c-6.4-9.5-12.6-20.3-18.6-32.4
	c-5.2-10.3-9.7-22.2-13-34.7C70.7,436.1,39.4,472,54,527.8c0.2,0.9,0.5,1.8,0.8,2.6c44.6,90.2,307.6,110.4,416.3,36.8
	C513.4,538.5,544.6,499.5,532.4,460.2z"/>
<path id="XMLID_26_" class="st0" d="M457,386.2c-16.1,0-1.5-40.7-8.6-56.4c1.6,3.7,1.7,9.7-0.5,16.8c0.4-0.3,0.8-0.6,1.1-0.9
	C414,447.7,421.3,480,383.9,514c18.3-16.4,31-31.8,38.7-30.2c20.5,4.1,81.3,9.9,92.5-23.7c2.3-7,3.6-13.3,4.1-19
	C523.2,394.1,471.4,386.2,457,386.2z M487.2,445.8c-4.4,32.4-51.6,23.9-55.1,15.2c-2.5-3.6-3.3-11-2.8-19l-0.4,0.3
	c2.3-24.1,2.1-46.8,34.7-28.3C480.7,419.7,493.4,429.3,487.2,445.8z M385.1,402c0-0.2,0-0.3,0-0.5c-24.3,9.1-56.8,15.3-99.7,15.3
	c-52.1,0-89.6-7-115.2-17.9c-22.8,2.5,20.2,122.1,48.7,138.6c24.7,10.9,52.5,14,84.6,13.8c21.3-0.1,39.7-7.8,55.4-17.9h0
	c8.9-5.7,17-12.3,24.2-18.7l-23.8,18.4C381.2,515.5,382,440.1,385.1,402z"/>
<path id="XMLID_19_" class="st1" d="M218.9,537.5c-1-0.4-2-0.9-2.9-1.3c-2.4-1.1-4.7-2.3-7-3.6c-0.9-0.5-1.8-1-2.8-1.6
	c-0.3-0.2-0.7-0.4-1.1-0.6c-0.7-0.4-1.4-0.8-2.1-1.3c-0.5-0.3-0.9-0.6-1.4-0.9c-0.8-0.5-1.5-1-2.2-1.5c-0.5-0.3-0.9-0.6-1.3-0.9
	c-0.4-0.3-0.9-0.6-1.3-0.9c-3-2.1-5.9-4.3-8.7-6.7c-0.4-0.4-0.9-0.8-1.3-1.1c-1-0.9-2-1.7-3-2.6c-0.4-0.4-0.9-0.8-1.3-1.2
	c-1.8-1.7-3.7-3.5-5.5-5.3c-0.7-0.7-1.3-1.4-2-2.1c-4.1-4.4-8.2-9.2-12.1-14.4c-0.3-0.4-0.6-0.8-1-1.3c-1.8-2.4-3.7-5-5.5-7.6
	c-0.4-0.6-0.8-1.2-1.2-1.8c-6.4-9.5-12.6-20.3-18.6-32.4c-5.2-10.3-9.7-22.2-13-34.7c-7.4-28.1-8.5-59.5,3.1-85.2
	c-8.8,24.4,1.5,52.5,43.4,70.2C147.4,401.4,190.4,521,218.9,537.5z"/>
<path id="XMLID_18_" class="st0" d="M389.3,399.9L389.3,399.9c-0.1-0.1-0.1-0.1,0-0.1C389.3,399.9,389.3,399.9,389.3,399.9z"/>
<path id="XMLID_36_" class="st4" d="M448.4,329.8c-38.6-85.5-193.5-70.5-269.3-46c-26.9,8.7-43.4,25.1-52.4,44.8c0,0,0,0,0,0
	c-8.8,24.4,1.5,52.5,43.4,70.2c25.6,10.9,63.1,17.9,115.2,17.9c42.9,0,75.4-6.2,99.7-15.3c1.4-0.5,2.8-1.1,4.2-1.6c0,0,0,0,0.1,0
	c10.4-4.2,19.1-9,26.5-14c19-12.9,28.6-27.6,32.2-39.3C450.1,339.5,450,333.5,448.4,329.8z M438.8,349.5c-0.9,1.7-1.9,3.4-3,5
	c-0.3,0.5-0.6,1-0.9,1.4c-0.1,0.2-0.2,0.3-0.3,0.5c-0.6,0.9-1.3,1.9-2,2.8c-0.4,0.5-0.7,0.9-1.1,1.4c-0.3,0.3-0.5,0.7-0.8,1
	c-0.3,0.4-0.6,0.8-0.9,1.1c-0.7,0.8-1.4,1.6-2.1,2.5c-0.3,0.3-0.6,0.7-1,1c-0.4,0.5-0.9,0.9-1.3,1.4c-5.5,5.8-12.2,11.4-20.2,16.6
	c-2.9,1.9-6,3.8-9.3,5.6c-0.8,0.5-1.7,0.9-2.5,1.3c-2.5,1.3-5.2,2.6-7.9,3.8c-0.6,0.3-1.3,0.6-1.9,0.9
	c-26.1,11.5-61.5,19-107.8,18.5c-47.7-0.6-79.4-8.5-99.7-17c0,0,0,0,0,0c-21.2-8.8-30.1-18-31.9-19.9c-3.3-3.5-6.2-7.1-8.7-10.7
	c-1.2-1.8-2.3-3.5-3.2-5.4c-8.3-15.6-7.4-32.9,12.4-53.9c3.4-3.6,8.2-7.2,14.3-10.6c3.2-1.8,6.7-3.6,10.5-5.3
	c5.2-2.3,10.9-4.5,17-6.6h0c48.3-16.2,125.4-23.6,192.6-5.1c6.9,1.9,14.4,4.8,21.7,8.4c0.2,0.1,0.4,0.2,0.6,0.3
	c18.7,9.4,36.2,23.8,40.2,40C443.2,335.4,442.6,342.4,438.8,349.5z"/>
<path id="XMLID_34_" class="st0" d="M487.2,445.8c-0.4,1-0.8,2.1-1.4,3.1c-12,24.5-50.3,17-53.8,12c-2.5-3.6-3.3-11-2.8-19
	c1.1-15.7,7.3-34,15.2-32.6c6.5,1.2,13,2.7,19,4.7C480.7,419.7,493.4,429.3,487.2,445.8z"/>
<path id="XMLID_22_" class="st3" d="M487.2,445.8c-0.4,1-0.8,2.1-1.4,3.1c-12,24.5-50.3,17-53.8,12c-2.5-3.6-3.3-11-2.8-19
	c1.1-15.7,7.3-34,15.2-32.6c6.5,1.2,13,2.7,19,4.7C480.7,419.7,493.4,429.3,487.2,445.8z"/>
<path id="XMLID_17_" class="st0" d="M179.2,283.8c-26.9,8.7-43.4,25.1-52.4,44.8C133.9,308.9,153.6,291.6,179.2,283.8z"/>
<path id="XMLID_11_" class="st1" d="M438.8,349.5c-0.9,1.7-1.9,3.4-3,5c-1.4-11-6.1-20.7-13.1-29.1c-5.1-6.1-11.5-11.5-18.8-16.2
	c1.2-6,1.1-16.9-2.7-20.6c18.7,9.4,36.2,23.8,40.2,40C443.2,335.4,442.6,342.4,438.8,349.5z"/>
<path id="XMLID_9_" class="st0" d="M154.7,322.2c-15.8,14.5-20.3,29.8-22.4,39.3c-8.3-15.6-7.4-32.9,12.4-53.9
	c3.4-3.6,8.2-7.2,14.3-10.6C154.8,302.8,154.1,310.6,154.7,322.2z"/>
<path id="XMLID_30_" class="st3" d="M404,309.2c-0.6-0.4-1.2-0.8-1.9-1.2c-25.7-15.9-61.7-23.7-93.6-23.9
	c-29.6-0.2-54.2,1.7-74.5,5.1c-2,0.3-4,0.7-5.9,1c-1.7,0.3-3.4,0.7-5.1,1c0,0,0,0,0,0c-29.7,6.2-49.5,15.8-62.9,26.2
	c-2,1.5-3.8,3.1-5.5,4.6c-0.6-11.5,0.1-19.3,4.3-25.3c3.2-1.8,6.7-3.6,10.5-5.3c5.2-2.3,10.9-4.5,17-6.6h0
	c48.3-16.2,125.4-23.6,192.6-5.1c6.9,1.9,14.4,4.8,21.7,8.4c0.2,0.1,0.4,0.2,0.6,0.3C405.1,292.3,405.2,303.2,404,309.2z"/>
<path id="XMLID_42_" class="st5" d="M435.9,354.6c-0.3,0.5-0.6,1-0.9,1.4c-0.1,0.2-0.2,0.3-0.3,0.5c-0.6,0.9-1.3,1.9-2,2.8
	c-0.4,0.5-0.7,0.9-1.1,1.4c-0.3,0.3-0.5,0.7-0.8,1c-0.3,0.4-0.6,0.8-0.9,1.1c-0.7,0.8-1.4,1.6-2.1,2.5c-0.3,0.3-0.6,0.7-1,1
	c-0.4,0.5-0.9,0.9-1.3,1.4c-5.5,5.8-12.2,11.4-20.2,16.6c-2.9,1.9-6,3.8-9.3,5.6c-0.8,0.5-1.7,0.9-2.5,1.3c-2.5,1.3-5.2,2.6-7.9,3.8
	c-2.1-1.6-4.9-2.7-8.2-3.6c-17.1-4.7-46.6-2-52.8-9.8c-0.2-0.3-0.4-0.6-0.6-0.9c-2.9-5.4-10.7-9.8-21-13.5h0
	c-12.4-4.4-28.3-8-43.4-11.3c-25.6-5.6-40.4-41.4-32.1-64c0.2-0.6,0.5-1.2,0.7-1.8c1.9-0.4,3.9-0.7,5.9-1c20.4-3.4,45-5.3,74.5-5.1
	c31.9,0.3,67.9,8,93.6,23.9c0.6,0.4,1.3,0.8,1.9,1.2c7.3,4.7,13.6,10.1,18.8,16.2C429.8,333.8,434.5,343.5,435.9,354.6z"/>
<path id="XMLID_16_" class="st6" d="M385.6,395c-0.6,0.3-1.3,0.6-1.9,0.9c-26.1,11.5-61.5,19-107.8,18.5c-47.7-0.6-79.4-8.5-99.7-17
	c0,0,0,0,0,0c-21.2-8.8-30.1-18-31.9-19.9c-3.3-3.5-6.2-7.1-8.7-10.7c-1.2-1.8-2.3-3.5-3.2-5.4c2.1-9.5,6.7-24.8,22.4-39.3
	c1.7-1.5,3.5-3.1,5.5-4.6c13.3-10.4,33.2-20,62.9-26.2c0,0,0,0,0,0c1.7-0.4,3.3-0.7,5.1-1c-0.3,0.6-0.5,1.2-0.7,1.8
	c-8.3,22.6,6.6,58.4,32.1,64c15.1,3.3,31,6.8,43.4,11.3h0c10.3,3.7,18.2,8.1,21,13.5c0.2,0.3,0.4,0.6,0.6,0.9
	c6.3,7.8,35.8,5.1,52.8,9.8C380.7,392.3,383.5,393.5,385.6,395z"/>
<path id="XMLID_14_" class="st0" d="M389.3,399.9L389.3,399.9c-0.1-0.1-0.1-0.1,0-0.1C389.3,399.9,389.3,399.9,389.3,399.9z"/>
<path id="XMLID_13_" class="st7" d="M386.5,514.3c-55.2,64.1-143.6,38.8-167.6,23.2c24.7,10.9,52.5,14,84.6,13.8
	c33.5-0.2,59.8-18.9,79.6-36.6L386.5,514.3z"/>
<path id="XMLID_12_" class="st0" d="M218.9,537.5c-28.5-16.5-71.5-136.1-48.7-138.6L218.9,537.5z"/>
<path id="XMLID_27_" class="st4" d="M449.1,345.7C414,447.7,421.3,480,383.9,514c-0.3,0.3-0.6,0.5-0.8,0.8l-23.8,18.4
	c21.9-17.6,22.7-93.1,25.8-131.2c0-0.2,0-0.3,0-0.5c1.4-0.5,2.8-1.1,4.2-1.6l0.1,0.1c0,0,0-0.1,0-0.1c10.4-4.2,19.1-9,26.5-14
	c19-12.9,28.6-27.6,32.2-39.3C448.3,346.3,448.7,346,449.1,345.7z"/>
<g id="XMLID_2_">
</g>
<g id="XMLID_3_">
</g>
<g id="XMLID_4_">
</g>
<g id="XMLID_5_">
</g>
<g id="XMLID_6_">
</g>
<g id="XMLID_7_">
</g>
</svg>
